<?xml version="1.0" encoding="UTF-8"?>
<svg width="157px" height="17px" viewBox="0 0 157 17" version="1.1" xmlns="http://www.w3.org/2000/svg" xmlns:xlink="http://www.w3.org/1999/xlink">
    <!-- Generator: Sketch 48.2 (47327) - http://www.bohemiancoding.com/sketch -->
    <title>wlogo-white-157x17</title>
    <desc>Created with Sketch.</desc>
    <defs></defs>
    <g id="Page-1" stroke="none" stroke-width="1" fill="none" fill-rule="evenodd">
        <g id="wlogo-white-157x17" fill="#FFFFFF" fill-rule="nonzero">
            <g id="logo-white-157x17">
                <path d="M18.645,15.651 L14.748,15.651 L12,7.107 L9.352,15.651 L5.404,15.651 L0.258,0.711 L4.555,0.711 L7.603,9.805 L10.401,0.711 L13.699,0.711 L16.547,9.805 L19.445,0.711 L23.693,0.711 L18.645,15.651 Z M62.067,0.711 L62.067,12.154 L66.764,12.154 L66.764,15.651 L57.82,15.651 L57.82,0.711 L62.067,0.711 Z M83.453,15.651 L79.556,15.651 L76.807,7.107 L74.209,15.651 L70.211,15.651 L65.065,0.711 L69.362,0.711 L72.41,9.805 L75.208,0.711 L78.505,0.711 L81.354,9.805 L84.302,0.711 L88.549,0.711 L83.453,15.651 Z M110.985,0.711 C112.734,0.711 113.383,0.861 114.183,1.261 C114.332,1.361 114.732,1.561 115.132,1.91 C115.682,2.41 116.381,3.459 116.381,5.258 C116.381,5.858 116.331,7.257 115.282,8.506 C115.132,8.656 114.882,9.006 114.432,9.256 C114.282,9.356 114.081,9.456 113.682,9.655 L118.079,15.651 L113.082,15.651 L109.484,10.505 L109.484,15.651 L105.487,15.651 L105.487,0.711 L110.985,0.711 Z M109.486,7.307 L110.185,7.307 C110.635,7.307 112.184,7.407 112.184,5.658 C112.184,4.109 110.834,4.109 110.385,4.109 L109.436,4.109 L109.436,7.307 L109.486,7.307 Z M128.324,0.711 L128.324,4.159 L125.226,4.159 L125.226,15.651 L121.029,15.651 L121.029,4.159 L117.881,4.159 L117.881,0.711 L128.324,0.711 Z M134.37,0.711 L134.37,6.307 L139.167,6.307 L139.167,0.711 L143.414,0.711 L143.414,15.651 L139.167,15.651 L139.167,9.755 L134.37,9.755 L134.37,15.651 L130.123,15.651 L130.123,0.711 L134.37,0.711 Z M154.208,4.809 C153.958,4.609 153.708,4.41 153.458,4.26 C153.309,4.16 152.209,3.51 151.26,3.51 C150.111,3.51 149.711,4.209 149.711,4.759 C149.711,5.159 149.96,5.459 150.21,5.658 C150.561,5.858 151.16,6.058 152.009,6.258 C152.259,6.308 153.858,6.658 154.858,7.457 C155.507,7.957 156.256,8.956 156.256,10.805 C156.256,12.155 155.906,13.304 155.007,14.303 C153.858,15.602 152.359,16.052 150.71,16.052 C147.861,16.052 146.213,14.853 145.314,14.203 L146.763,11.104 C146.912,11.254 147.113,11.404 147.313,11.504 C148.612,12.403 149.611,12.753 150.311,12.753 C151.31,12.753 152.16,12.203 152.16,11.153 C152.16,10.803 152.06,10.504 151.86,10.254 C151.41,9.705 150.661,9.605 150.061,9.405 C149.461,9.255 148.412,9.005 147.862,8.705 C147.063,8.306 145.664,7.406 145.664,5.158 C145.664,4.109 145.914,3.359 146.063,3.009 C146.613,1.81 147.913,0.361 150.911,0.361 C152.71,0.361 153.959,0.91 154.608,1.21 C155.007,1.41 155.358,1.66 155.757,1.91 L154.208,4.809 Z M48.326,0.362 C43.979,0.362 40.431,3.909 40.431,8.257 C40.431,12.604 43.979,16.152 48.326,16.152 C52.673,16.152 56.221,12.604 56.221,8.257 C56.221,3.859 52.673,0.362 48.326,0.362 Z M48.326,11.904 C46.277,11.904 44.678,10.255 44.678,8.257 C44.678,6.208 46.327,4.609 48.326,4.609 C50.325,4.609 51.973,6.258 51.973,8.257 C52.023,10.255 50.374,11.904 48.326,11.904 Z M96.195,0.362 C91.847,0.362 88.299,3.909 88.299,8.257 C88.299,12.604 91.847,16.152 96.195,16.152 C100.542,16.152 104.09,12.604 104.09,8.257 C104.04,3.859 100.542,0.362 96.195,0.362 Z M96.195,11.904 C94.146,11.904 92.547,10.255 92.547,8.257 C92.547,6.208 94.196,4.609 96.195,4.609 C98.243,4.609 99.842,6.258 99.842,8.257 C99.843,10.255 98.243,11.904 96.195,11.904 Z M31.236,0.362 C26.889,0.362 23.341,3.909 23.341,8.257 C23.341,12.604 26.889,16.152 31.236,16.152 C35.584,16.152 39.131,12.554 39.131,8.207 C39.131,3.86 35.584,0.362 31.236,0.362 Z M31.236,11.904 C29.188,11.904 27.589,10.255 27.589,8.257 C27.589,6.208 29.238,4.609 31.236,4.609 C33.235,4.609 34.884,6.258 34.884,8.257 C34.934,10.255 33.285,11.904 31.236,11.904 Z" id="Shape"></path>
            </g>
        </g>
    </g>
</svg>