<svg width="28" height="28" viewBox="0 0 28 28" fill="none" xmlns="http://www.w3.org/2000/svg"><path d="M28 13.98c.011 7.693-6.277 13.997-13.984 14.02C6.33 28.023.009 21.713 0 14.014-.009 6.315 6.277.014 13.979 0 21.672-.014 27.989 6.287 28 13.98zm-16.384 4.342c-.008 0-.014 0-.022 0 0 1.18.03 2.362-.012 3.541-.026.667.176.97.876.925.566-.037 1.134.003 1.703.006.87.002.93-.052.938-.913.022-2.337.06-4.677.048-7.013-.003-.69.248-.89.918-.877 1.655.04 1.655.012 1.871-1.63.244-1.857.244-1.86-1.649-1.866-.483-.003-.958.074-.964-.672-.011-1.154.171-1.514.924-1.597.592-.065 1.427.051 1.703-.283.31-.377.114-1.168.137-1.778.003-.071-.003-.142.003-.213.048-.507-.171-.743-.691-.734-.711.011-1.422-.029-2.13-.012-2.012.046-3.175 1.01-3.553 2.97-.086.436-.071.893-.08 1.338-.017.924-.017.958-.958.947-.58-.008-.824.204-.799.785.026.565 0 1.135 0 1.7 0 1.011 0 1.037 1.004 1.026.546-.006.762.164.747.731-.037 1.211-.014 2.416-.014 3.619z" fill="#000"/></svg>