<svg width="28" height="28" viewBox="0 0 28 28" fill="none" xmlns="http://www.w3.org/2000/svg"><path d="M28 14.04c-.017 7.744-6.307 13.997-14.046 13.96C6.247 27.966-.006 21.69 0 14.003.006 6.28 6.32-.025 14.026 0 21.776.026 28.014 6.295 28 14.04zm-6.238.011c0-1.418.003-2.834 0-4.252-.006-2.273-1.339-3.612-3.62-3.62-2.75-.012-5.5-.006-8.25-.003-2.267.003-3.65 1.359-3.66 3.603-.01 2.811-.01 5.622 0 8.43.01 2.262 1.364 3.61 3.64 3.62 2.796.015 5.594.012 8.393 0 2.096-.008 3.477-1.38 3.497-3.455.011-1.44 0-2.882 0-4.323z" fill="#000"/><path d="M21.762 14.05c0 1.442.011 2.883-.003 4.324-.017 2.077-1.4 3.447-3.496 3.456a920.97 920.97 0 01-8.394 0c-2.278-.012-3.63-1.36-3.639-3.62-.011-2.812-.011-5.623 0-8.431.009-2.244 1.393-3.6 3.659-3.603 2.75-.003 5.5-.009 8.251.003 2.281.008 3.613 1.35 3.62 3.62.008 1.418.002 2.834.002 4.252zm-1.364-.059h-.003c0-1.418.009-2.834-.003-4.252-.01-1.464-.771-2.221-2.235-2.227-2.773-.006-5.549-.003-8.322.003C8.425 7.518 7.6 8.3 7.59 9.69a795.977 795.977 0 000 8.646c.006 1.342.834 2.148 2.193 2.154a924.6 924.6 0 008.393-.003c1.464-.009 2.207-.772 2.218-2.244.012-1.419.003-2.834.003-4.253z" fill="#fff"/><path d="M20.398 13.991c0 1.419.008 2.834-.003 4.253-.011 1.472-.755 2.235-2.218 2.244a924.61 924.61 0 01-8.394.003c-1.358-.006-2.186-.815-2.192-2.154a795.723 795.723 0 010-8.646c.008-1.388.834-2.17 2.244-2.176 2.773-.006 5.549-.009 8.322-.003 1.464.003 2.224.763 2.235 2.227.012 1.418.003 2.834.003 4.252.003 0 .003 0 .003 0zm-10.441-.054c-.037 2.236 1.765 4.097 4.003 4.14 2.175.039 4.043-1.77 4.1-3.975.057-2.23-1.756-4.136-3.969-4.17-2.235-.031-4.1 1.773-4.134 4.005zm9.328-4.065c.04-.576-.365-1.041-.877-1.047-.564-.005-.877.304-.937.846-.063.55.313.964.865.976.561.008.863-.295.949-.775z" fill="#000"/><path d="M9.958 13.938c.037-2.233 1.899-4.04 4.134-4.006 2.21.034 4.026 1.94 3.969 4.17-.057 2.204-1.925 4.014-4.1 3.975-2.238-.04-4.04-1.904-4.003-4.14zm4.094-2.639a2.703 2.703 0 00-2.74 2.664c-.016 1.495 1.177 2.735 2.655 2.755 1.48.02 2.713-1.177 2.753-2.67.037-1.458-1.199-2.734-2.668-2.748zM19.284 9.872c-.085.48-.387.783-.948.772-.552-.009-.928-.426-.865-.976.06-.542.373-.851.936-.846.513.009.917.474.877 1.05z" fill="#fff"/><path d="M14.05 11.3c1.467.014 2.706 1.29 2.669 2.748-.037 1.493-1.273 2.69-2.754 2.67-1.474-.02-2.67-1.26-2.653-2.755A2.7 2.7 0 0114.05 11.3z" fill="#000"/></svg>