<svg width="28" height="28" viewBox="0 0 28 28" fill="none" xmlns="http://www.w3.org/2000/svg"><path d="M10.146 27.352c.813-2.25 1.607-4.446 2.42-6.699.833.769 1.79 1.264 2.965 1.283 1.452.026 2.76-.367 3.934-1.212 3.618-2.595 4.58-8.575 1.924-12.136-1.55-2.078-3.686-3.137-6.239-3.352-3.696-.308-7.334 1.046-9.056 4.33-1.37 2.608-1.477 5.268.098 7.845.34.557.882 1 1.381 1.445.396.35.706.31.887-.297.252-.85.266-1.557-.206-2.42-1.737-3.176.356-7.509 3.906-8.27 2.603-.556 4.927-.135 6.585 2.143 1.748 2.402 1.164 6.984-1.169 8.821-.604.475-1.488.752-2.268.817-1.29.104-2.22-.998-1.988-2.278.192-1.066.602-2.092.836-3.152.155-.697.297-1.44.218-2.139-.15-1.331-1.455-1.919-2.638-1.269-.827.458-1.347 1.204-1.435 2.106-.084.884.068 1.792.108 2.69.017.353.076.721.003 1.057-.472 2.126-1.028 4.231-1.446 6.365-.192.978-.133 2.007-.184 3.013-.011.246-.003.492-.003.763C4.106 25.43-.884 19.37.132 12.106 1.29 3.849 9.237-1.685 17.573.472c7.76 2.006 12.27 10.448 9.703 17.884-2.586 7.487-10.815 11.255-17.13 8.997z" fill="#000"/></svg>