<svg width="28" height="28" viewBox="0 0 28 28" fill="none" xmlns="http://www.w3.org/2000/svg"><path fill-rule="evenodd" clip-rule="evenodd" d="M14 28c7.732 0 14-6.268 14-14S21.732 0 14 0 0 6.268 0 14s6.268 14 14 14zm5.644-19.357c.118.075.239.144.364.207.81.394 1.602.514 1.992.472v3.07s-1.113-.046-1.939-.26c-1.151-.3-1.89-.761-1.89-.761s-.512-.33-.55-.353v6.342c0 .352-.096 1.234-.383 1.97a5.915 5.915 0 01-1.063 1.722s-.707.855-1.95 1.43a5.772 5.772 0 01-2.324.515c-.03 0-.056.001-.079.002 0 0-1.701.067-3.236-.95l-.008-.008v.008a6.38 6.38 0 01-1.373-1.263 5.994 5.994 0 01-.86-1.531v-.008c-.123-.356-.38-1.219-.341-2.052.061-1.467.566-2.371.7-2.596a6.098 6.098 0 011.357-1.633 5.939 5.939 0 012.13-1.11 6.035 6.035 0 012.408-.184l-.004 3.148a2.715 2.715 0 00-.823-.127c-1.477 0-2.674 1.174-2.674 2.624 0 1.45 1.197 2.625 2.674 2.625a2.7 2.7 0 001.312-.337c.383-.213.708-.514.944-.877a2.58 2.58 0 00.41-1.207v-.006c.002-.01.002-.018.002-.027 0-.007.001-.013.002-.02a.504.504 0 00.001-.038c.007-.157.007-.316.007-.476V5h3.17c-.004 0-.037.296.043.754h-.004c.096.552.356 1.34 1.052 2.116.278.293.591.553.933.773z" fill="#000"/></svg>