<svg width="28" height="28" viewBox="0 0 28 28" fill="none" xmlns="http://www.w3.org/2000/svg"><path d="M0 13.959C.003 6.285 6.35-.014 14.072 0 21.744.014 27.995 6.299 28 14.004c.003 7.691-6.285 14.005-13.942 13.99C6.285 27.986-.002 21.704 0 13.96zm5.407 5.632c-.012.063-.026.122-.037.185.187.141.355.337.566.416.796.295 1.59.622 2.411.814 6.482 1.52 12.705-3.196 12.95-9.812.02-.553.207-.928.62-1.268.346-.284.634-.64.947-.967-.035-.048-.069-.096-.103-.147-.355.022-.708.045-1.177.076.372-.55.68-1.007.987-1.46-.052-.051-.103-.1-.154-.15-.284.096-.583.16-.85.294-.677.335-1.255.312-1.9-.17-.45-.335-1.064-.553-1.63-.621-2.326-.275-4.172 1.358-4.229 3.7-.011.477-.054.775-.663.676-1.928-.315-3.7-.981-5.221-2.226-.56-.457-1.081-.965-1.721-1.537-.956 1.76-.424 3.233.77 4.733-.318-.043-.429-.046-.534-.074-.748-.196-.853-.108-.688.641.23 1.024.842 1.775 1.732 2.314.16.097.307.21.532.363-1.07.35-1.158.562-.436 1.313.461.48 1.084.806 1.653 1.172.222.141.495.198.893.351-1.496 1.104-3.046 1.43-4.718 1.384z" fill="#000"/></svg>