<svg width="28" height="28" viewBox="0 0 28 28" fill="none" xmlns="http://www.w3.org/2000/svg"><path d="M28 14.043c-.006 7.7-6.267 13.948-13.987 13.957C6.284 28.011-.006 21.723 0 13.992.006 6.256 6.276 0 14.027 0 21.756 0 28.006 6.282 28 14.043zm-14.044 4.436c0-.003 0-.009 0-.012 1.473 0 2.943.014 4.415-.003 1.28-.014 2.02-.757 2.032-2.039.017-1.608.014-3.214-.003-4.822-.012-1.324-.752-2.067-2.074-2.07-2.872-.012-5.746-.012-8.618 0-1.358.005-2.096.746-2.11 2.119a240.139 240.139 0 000 4.75c.01 1.305.777 2.065 2.085 2.076 1.424.009 2.848 0 4.273 0z" fill="#000"/><path d="M13.942 19.73c-1.823 0-3.646.014-5.47-.003-1.672-.015-2.652-.988-2.666-2.658-.02-2.025-.02-4.053 0-6.078.017-1.756.96-2.703 2.7-2.712 3.675-.014 7.353-.014 11.028 0 1.692.006 2.638.953 2.655 2.652.02 2.057.023 4.113.003 6.17-.017 1.641-.963 2.591-2.601 2.611-1.883.023-3.766.006-5.652.006.003.003.003.009.003.011zm3.165-5.747c-.009-.11-.017-.224-.026-.335-1.743-.907-3.487-1.818-5.466-2.85 0 2.02-.009 3.758.03 5.497.004.079.502.277.676.204.667-.287 1.293-.664 1.934-1.004.949-.505 1.9-1.007 2.852-1.512z" fill="#fff"/><path d="M17.106 13.983c-.951.502-1.903 1.007-2.851 1.512-.644.34-1.27.717-1.935 1.004-.173.074-.675-.122-.675-.204-.04-1.739-.03-3.478-.03-5.497 1.979 1.032 3.722 1.94 5.466 2.85.008.111.017.224.025.335z" fill="#000"/></svg>