<svg width="14" height="12" viewBox="0 0 14 12" fill="none" xmlns="http://www.w3.org/2000/svg">
<g clip-path="url(#clip0_1_5)">
<path d="M12.3266 -1.92877e-06H1.62474C1.18854 0.0154924 0.775287 0.203821 0.472159 0.525249C0.16903 0.846676 -0.000262267 1.27607 3.0498e-07 1.72282V10.2871C-7.12448e-06 10.7423 0.175984 11.179 0.489528 11.5018C0.803072 11.8247 1.22868 12.0073 1.67338 12.01H12.3753C12.82 12.0073 13.2456 11.8247 13.5591 11.5018C13.8727 11.179 14.0487 10.7423 14.0486 10.2871V1.72282C14.0487 1.49318 14.0039 1.26585 13.9169 1.05419C13.8299 0.84253 13.7024 0.650809 13.542 0.490298C13.3816 0.329788 13.1914 0.203727 12.9827 0.119528C12.774 0.0353281 12.5509 -0.00531143 12.3266 -1.92877e-06ZM1.62474 0.995849H12.3266C12.4194 0.995839 12.5113 1.01471 12.5969 1.05136C12.6826 1.08802 12.7602 1.14173 12.8254 1.20937C12.8906 1.277 12.942 1.35723 12.9766 1.44537C13.0112 1.53352 13.0284 1.62783 13.0271 1.72282V3.84398H0.972898V1.72282C0.971609 1.62783 0.988776 1.53352 1.0234 1.44537C1.05803 1.35723 1.10942 1.277 1.17459 1.20937C1.23977 1.14173 1.31743 1.08802 1.40305 1.05136C1.48868 1.01471 1.58057 0.995839 1.67338 0.995849H1.62474ZM12.3266 11.0041H1.62474C1.44582 10.9914 1.27849 10.9089 1.15722 10.7737C1.03595 10.6384 0.969976 10.4607 0.972898 10.2772V5.83568H13.0271V10.2871C13.0271 10.4773 12.9533 10.6597 12.8219 10.7941C12.6906 10.9286 12.5124 11.0041 12.3266 11.0041Z" fill="#999999"/>
<path d="M2.37387 7.94689H6.30438V8.94274H2.37387V7.94689ZM10.0695 7.94689H11.6359V8.94274H10.0695V7.94689Z" fill="#999999"/>
</g>
<defs>
<clipPath id="clip0_1_5">
<rect width="14" height="12" fill="white"/>
</clipPath>
</defs>
</svg>
