<svg width="13" height="16" viewBox="0 0 13 16" fill="none" xmlns="http://www.w3.org/2000/svg">
<g clip-path="url(#clip0_1_18)">
<path d="M11.4813 4.85301H11.3801C11.3801 3.57387 10.8659 2.34712 9.95076 1.44263C9.03557 0.538137 7.79431 0.0299997 6.50003 0.0299997C5.20576 0.0299997 3.9645 0.538137 3.04931 1.44263C2.13412 2.34712 1.61997 3.57387 1.61997 4.85301H1.51873C1.11594 4.85301 0.729658 5.01115 0.444848 5.29263C0.160038 5.57411 3.37519e-05 5.95588 3.37519e-05 6.35395V14.499C-0.00130153 14.697 0.036995 14.8932 0.112718 15.0765C0.188442 15.2598 0.300096 15.4264 0.441253 15.5668C0.582409 15.7073 0.75028 15.8187 0.935199 15.8948C1.12012 15.9708 1.31843 16.01 1.51873 16.01H11.4813C11.8841 16.01 12.2704 15.8519 12.5552 15.5704C12.84 15.2889 13 14.9071 13 14.509V6.35395C13 5.95588 12.84 5.57411 12.5552 5.29263C12.2704 5.01115 11.8841 4.85301 11.4813 4.85301ZM3.13866 4.85301C3.13866 3.97194 3.49281 3.12696 4.12319 2.50395C4.75356 1.88094 5.60854 1.53094 6.50003 1.53094C7.39152 1.53094 8.2465 1.88094 8.87688 2.50395C9.50726 3.12696 9.8614 3.97194 9.8614 4.85301H3.13866ZM11.3396 14.439H1.64022V6.434H11.3396V14.439Z" fill="#999999"/>
<path d="M5.7002 7.995H7.31001V12.0075H5.7002V7.995Z" fill="#999999"/>
</g>
<defs>
<clipPath id="clip0_1_18">
<rect width="13" height="16" fill="white"/>
</clipPath>
</defs>
</svg>
