<svg width="36" height="18" viewBox="0 0 36 18" xmlns="http://www.w3.org/2000/svg"><g fill-rule="nonzero" fill="none"><path fill="#E02D2D" d="M0 0h36v18H0z"/><path d="M11.29 6.85c-.2-.16-.4-.28-.63-.38-.2-.09-.47-.18-.73-.18-.63 0-.96.42-.96.75 0 .24.14.45.3.57.1.06.31.11.45.16.15.05.32.1.53.16.12.02.81.23 1.24.59.27.22.68.62.68 1.49 0 .62-.16 1.14-.56 1.61-.52.6-1.21.8-1.98.8-.65 0-1.16-.14-1.56-.32-.2-.1-.37-.2-.52-.29-.11-.07-.38-.24-.55-.39l.73-1.28c.4.33 1.16.81 1.7.81.51 0 1.06-.19 1.06-.81 0-.2-.06-.38-.18-.54-.23-.28-.64-.36-.97-.45-.14-.04-.33-.09-.53-.14-.75-.22-1.48-.81-1.48-1.8 0-.48.12-.82.19-.99C7.76 5.68 8.37 5 9.73 5c.82 0 1.4.25 1.69.4.15.08.28.17.42.26l-.55 1.19zm4.81-1.66l2.58 7.05h-1.46l-.52-1.6h-2.39l-.56 1.6h-1.48l2.77-7.05h1.06zm-1.34 4.14h1.52l-.72-2.3-.8 2.3zm3.02-4.15h1.66c.65 1.44 1.27 2.9 1.84 4.36.09-.25.2-.51.31-.76.3-.63.47-1.14.72-1.7l.8-1.9h1.63l-3.1 7.06h-.74l-3.12-7.06zm11.71.01v1.38h-2.84v1.15h2.59v1.35h-2.6v1.8h2.81v1.37h-4.31V5.19h4.35z" fill="#FFF"/></g></svg>