<svg width="11" height="15" viewBox="0 0 11 15" fill="none" xmlns="http://www.w3.org/2000/svg">
<g clip-path="url(#clip0_1_11)">
<path d="M4.58582 13.7627L5.49507 15L6.40432 13.7627V11.8458H4.58582V13.7627Z" fill="#999999"/>
<path d="M5.49506 0C4.40824 0 3.34583 0.330718 2.44217 0.950334C1.53851 1.56995 0.834197 2.45063 0.418289 3.48101C0.00238093 4.5114 -0.10644 5.6452 0.105588 6.73905C0.317616 7.8329 0.84097 8.83766 1.60947 9.62628C2.37797 10.4149 3.35709 10.952 4.42303 11.1695C5.48896 11.3871 6.59384 11.2755 7.59793 10.8487C8.60202 10.4219 9.46023 9.6991 10.064 8.77178C10.6678 7.84446 10.9901 6.75422 10.9901 5.63895C10.9901 4.1434 10.4112 2.70912 9.38065 1.65161C8.35013 0.594101 6.95244 0 5.49506 0ZM5.49506 9.40162C4.76986 9.40162 4.06095 9.18095 3.45797 8.7675C2.85499 8.35405 2.38502 7.7664 2.1075 7.07886C1.82998 6.39132 1.75737 5.63477 1.89885 4.90488C2.04033 4.175 2.38954 3.50455 2.90234 2.97833C3.41513 2.45211 4.06847 2.09375 4.77973 1.94857C5.49099 1.80338 6.22824 1.8779 6.89823 2.16268C7.56823 2.44747 8.14088 2.92974 8.54378 3.54851C8.94668 4.16728 9.16173 4.89476 9.16173 5.63895C9.16173 6.63687 8.77542 7.59392 8.08779 8.29956C7.40015 9.0052 6.46752 9.40162 5.49506 9.40162Z" fill="#999999"/>
<path d="M5.49505 7.51521C6.50484 7.51521 7.32344 6.67518 7.32344 5.63895C7.32344 4.60271 6.50484 3.76268 5.49505 3.76268C4.48526 3.76268 3.66666 4.60271 3.66666 5.63895C3.66666 6.67518 4.48526 7.51521 5.49505 7.51521Z" fill="#999999"/>
</g>
<defs>
<clipPath id="clip0_1_11">
<rect width="11" height="15" fill="white"/>
</clipPath>
</defs>
</svg>
