<svg width="15" height="15" viewBox="0 0 15 15" fill="none" xmlns="http://www.w3.org/2000/svg">
<g clip-path="url(#clip0_1_15)">
<path d="M5.53937 2.9815L5.82726 4.41056C6.44253 4.23153 7.09044 4.20894 7.71594 4.34472C8.34145 4.4805 8.92607 4.77063 9.42014 5.19047C9.91421 5.61031 10.3031 6.14745 10.5539 6.75626C10.8046 7.36507 10.9097 8.02756 10.8603 8.68746H12.27C12.3135 7.81192 12.1576 6.93805 11.815 6.13638C11.4723 5.33471 10.9525 4.62769 10.2975 4.07236C9.64244 3.51704 8.87051 3.12898 8.044 2.93949C7.21748 2.75 6.35953 2.76439 5.53937 2.9815Z" fill="#999999"/>
<path d="M11.1582 2.99171C11.9729 3.67934 12.6221 4.55369 13.0545 5.54573C13.4869 6.53777 13.6908 7.62034 13.6499 8.70796H15C15.0299 7.41365 14.774 6.12936 14.2518 4.95304C13.7296 3.77672 12.9549 2.73944 11.9868 1.9203C11.0187 1.10117 9.88281 0.521812 8.66566 0.226424C7.44851 -0.0689646 6.1823 -0.0725847 4.96359 0.21584L5.26141 1.58321C6.28249 1.32901 7.34663 1.32393 8.36993 1.56835C9.39324 1.81278 10.3477 2.30004 11.1582 2.99171ZM3.70284 12.3886C10.0364 17.7553 13.63 13.2008 13.9279 12.7895C14.142 12.5095 14.3313 12.2102 14.4937 11.8951L9.72865 9.25285C8.66644 8.65655 8.67636 11.4633 6.15486 9.3351C3.63335 7.20693 6.30376 6.65176 5.52944 5.68534L2.05492 1.33647C1.79014 1.55358 1.54433 1.7944 1.32031 2.05614C0.992711 2.49823 -2.62079 7.01159 3.70284 12.3886ZM3.97087 6.16855C3.52415 6.97047 2.97815 8.60515 5.21177 10.538C7.44539 12.4708 8.91462 11.5661 9.57974 10.9287L12.2502 12.4297C11.049 13.5195 8.6168 14.5784 4.68563 11.2679C0.714749 7.85463 1.24089 5.14045 1.98543 3.72167L3.97087 6.16855Z" fill="#999999"/>
</g>
<defs>
<clipPath id="clip0_1_15">
<rect width="15" height="15" fill="white"/>
</clipPath>
</defs>
</svg>
