<svg width="11" height="14" viewBox="0 0 11 14" fill="none" xmlns="http://www.w3.org/2000/svg">
<g clip-path="url(#clip0_1_8)">
<path d="M5.49507 2.45666C4.89452 2.45861 4.30802 2.63849 3.80963 2.97357C3.31124 3.30866 2.92332 3.78393 2.69485 4.33936C2.46638 4.89479 2.40761 5.50547 2.52596 6.09428C2.64432 6.68309 2.93449 7.22362 3.35983 7.64761C3.78517 8.0716 4.32661 8.36004 4.91576 8.47649C5.50491 8.59295 6.11536 8.53219 6.67001 8.30191C7.22466 8.07163 7.69864 7.68214 8.03209 7.18263C8.36554 6.68313 8.5435 6.09601 8.5435 5.49542C8.5435 5.09553 8.46458 4.69958 8.31126 4.33025C8.15795 3.96093 7.93324 3.6255 7.65004 3.3432C7.36684 3.06089 7.0307 2.83726 6.66091 2.68513C6.29111 2.533 5.89493 2.45536 5.49507 2.45666ZM5.49507 7.89288C5.01537 7.89678 4.54535 7.75784 4.14486 7.49374C3.74437 7.22965 3.43152 6.85234 3.24614 6.40986C3.06076 5.96738 3.01124 5.47974 3.10387 5.00902C3.1965 4.53829 3.4271 4.10579 3.76631 3.76655C4.10553 3.42732 4.53801 3.1967 5.0087 3.10406C5.47939 3.01143 5.967 3.06096 6.40945 3.24635C6.8519 3.43174 7.22919 3.74461 7.49327 4.14513C7.75735 4.54564 7.89628 5.01569 7.89238 5.49542C7.88722 6.12967 7.633 6.73648 7.18453 7.18498C6.73606 7.63348 6.12928 7.88773 5.49507 7.89288Z" fill="#999999"/>
<path d="M5.49509 0C4.315 0.000305992 3.16636 0.380529 2.21914 1.0844C1.27192 1.78828 0.576436 2.77841 0.235614 3.90829C-0.105207 5.03816 -0.0732631 6.24775 0.32672 7.35805C0.726703 8.46836 1.47347 9.4204 2.45653 10.0733V14.0197L5.49509 12.303L8.53366 14.0197V10.0733C9.51671 9.4204 10.2635 8.46836 10.6635 7.35805C11.0634 6.24775 11.0954 5.03816 10.7546 3.90829C10.4137 2.77841 9.71827 1.78828 8.77105 1.0844C7.82382 0.380529 6.67518 0.000305992 5.49509 0ZM7.8924 9.08668L7.36953 9.44186V11.9774L6.09689 11.2572L5.51482 10.9316L4.93276 11.2572L3.66011 11.9774V9.44186L3.12738 9.08668C2.35545 8.5748 1.76889 7.82791 1.45456 6.95662C1.14022 6.08532 1.11482 5.13596 1.38212 4.2491C1.64942 3.36225 2.1952 2.58506 2.93865 2.03263C3.6821 1.48019 4.58368 1.18189 5.50989 1.18189C6.4361 1.18189 7.33768 1.48019 8.08113 2.03263C8.82458 2.58506 9.37037 3.36225 9.63767 4.2491C9.90496 5.13596 9.87956 6.08532 9.56523 6.95662C9.25089 7.82791 8.66433 8.5748 7.8924 9.08668Z" fill="#999999"/>
</g>
<defs>
<clipPath id="clip0_1_8">
<rect width="11" height="14" fill="white"/>
</clipPath>
</defs>
</svg>
