<svg width="37" height="25" viewBox="0 0 37 25" fill="none" xmlns="http://www.w3.org/2000/svg">
<path d="M0 2C0 0.89543 0.89543 0 2 0H35C36.1046 0 37 0.895431 37 2V23C37 24.1046 36.1046 25 35 25H2C0.895432 25 0 24.1046 0 23V2Z" fill="#563B5D"/>
<path d="M10 5L13.5296 17H16.6508L18.9728 10.0447H19.0086L21.0764 17H24.2181L28 5H24.7977L22.5676 12.7487H22.5366L20.2148 5H17.7666L15.2873 12.7487H15.2562L13.1992 5H10Z" fill="#3F2B45"/>
<rect x="4" y="7" width="29" height="0.5" fill="white"/>
<rect x="4" y="15" width="29" height="0.5" fill="white"/>
<path d="M6.52959 12.9999H7.43459L6.32959 11.5099C6.78459 11.3599 7.03959 10.9449 7.03959 10.5099C7.03959 10.1999 6.89459 9.86488 6.59959 9.65988C6.37459 9.50488 6.10959 9.47488 5.85459 9.47488H4.70459V12.9999H5.44459V11.5549L6.52959 12.9999ZM5.45459 10.1599H5.73959C5.98959 10.1599 6.27459 10.2549 6.27459 10.5499C6.27459 10.8499 5.99459 10.9599 5.72459 10.9599H5.45459V10.1599Z" fill="white"/>
<path d="M9.96064 9.47488H7.78564V12.9999H9.94064V12.3149H8.53564V11.4149H9.83564V10.7399H8.54064V10.1649H9.96064V9.47488Z" fill="white"/>
<path d="M10.2614 9.46988L11.8214 12.9999H12.1914L13.7414 9.46988H12.9264L12.5264 10.4199C12.4014 10.6999 12.3164 10.9549 12.1664 11.2699C12.1114 11.3949 12.0564 11.5249 12.0114 11.6499C11.7264 10.9199 11.4164 10.1899 11.0914 9.46988H10.2614Z" fill="white"/>
<path d="M15.7805 9.37988C15.0305 9.37988 14.3505 9.77988 14.0655 10.4899C13.9255 10.8349 13.9155 11.1499 13.9155 11.2849C13.9155 12.1049 14.3705 12.5499 14.6205 12.7349C15.0805 13.0749 15.6205 13.0899 15.8005 13.0899C16.5605 13.0899 17.2255 12.7549 17.5255 12.0249C17.6655 11.6899 17.6755 11.3999 17.6755 11.2599C17.6755 10.6299 17.4005 10.2099 17.2505 10.0299C16.8905 9.60488 16.4355 9.47488 16.2405 9.42988C16.0405 9.38488 15.8505 9.37988 15.7805 9.37988ZM15.8055 10.1149C16.2555 10.1099 16.5405 10.3749 16.6405 10.4949C16.8855 10.7849 16.9055 11.1099 16.9055 11.2449C16.9055 11.5849 16.7705 11.9299 16.5005 12.1499C16.3855 12.2449 16.1905 12.3699 15.8405 12.3699C15.3755 12.3699 14.9505 12.1449 14.7705 11.6999C14.6855 11.4999 14.6805 11.3249 14.6805 11.2449C14.6755 10.7499 14.9755 10.4549 15.1105 10.3499C15.3755 10.1349 15.6955 10.1149 15.8055 10.1149Z" fill="white"/>
<path d="M18.8043 9.47488H18.0493V12.9999H19.8793V12.3249H18.8043V9.47488Z" fill="white"/>
<path d="M20.0808 9.46988L21.6408 12.9999H22.0108L23.5608 9.46988H22.7458L22.3458 10.4199C22.2208 10.6999 22.1358 10.9549 21.9858 11.2699C21.9308 11.3949 21.8758 11.5249 21.8308 11.6499C21.5458 10.9199 21.2358 10.1899 20.9108 9.46988H20.0808Z" fill="white"/>
<path d="M24.6249 9.47488H23.8599V12.9999H24.6249V9.47488Z" fill="white"/>
<path d="M27.5795 11.5499C26.8545 10.8449 26.2595 10.1649 25.5195 9.47488H25.1245V12.9999H25.8895V11.4499C25.8895 11.2599 25.8845 11.0699 25.8745 10.8799L27.9095 12.9999H28.3295V9.47488H27.5695V11.2899C27.5695 11.3799 27.5745 11.4649 27.5795 11.5499Z" fill="white"/>
<path d="M31.7506 10.6699L32.2406 10.1799C32.1356 10.0449 32.0806 9.98988 32.0306 9.94988C31.6506 9.60988 31.1756 9.40988 30.6456 9.40988C29.5356 9.40988 28.7056 10.2299 28.7056 11.2549C28.7056 12.2899 29.5006 13.0599 30.6106 13.0599C31.3256 13.0599 31.7206 12.7549 31.9206 12.5499C32.3756 12.0799 32.4206 11.6149 32.4206 11.0299H30.7306V11.7199H31.5906C31.4956 12.1199 31.0456 12.3849 30.6206 12.3849C29.9556 12.3849 29.4606 11.8749 29.4606 11.2499C29.4606 10.6449 29.9756 10.0899 30.6356 10.0899C31.1506 10.0899 31.5556 10.3749 31.7506 10.6699Z" fill="white"/>
<path d="M5.55569 18.2515C5.66783 18.1896 5.94236 17.9808 5.94236 17.598C5.94236 17.3312 5.80703 17.0837 5.56343 16.9639C5.45516 16.9097 5.31596 16.8749 5.27729 16.8711C4.89836 16.8363 4.70503 16.8517 4.46143 16.8633V19.57H4.79783V18.3636C5.04916 18.3636 5.32756 18.3829 5.55569 18.2515ZM5.35849 17.2075C5.50156 17.2732 5.60596 17.4279 5.60596 17.598C5.60596 17.7333 5.54409 17.83 5.51316 17.8725C5.38556 18.0465 5.21929 18.062 4.97956 18.062H4.79009V17.1611C4.92929 17.1611 5.21929 17.1417 5.35849 17.2075Z" fill="white"/>
<path d="M6.29658 19.5661H7.70018V19.2568H6.62525V18.2592H7.68085V17.9615H6.62912V17.1572H7.68085V16.8595H6.29658V19.5661Z" fill="white"/>
<path d="M9.49386 19.5661H9.92306L8.968 18.3559C9.16133 18.3365 9.31986 18.2979 9.4668 18.1587C9.6756 17.9615 9.70653 17.7063 9.70653 17.6019C9.70653 17.3196 9.55186 17.0644 9.28506 16.9407C9.19226 16.8981 9.1072 16.8788 9.01053 16.8595C8.65093 16.8324 8.47306 16.8479 8.2488 16.8595V19.57H8.58133V18.4139L9.49386 19.5661ZM9.1652 17.2229C9.2812 17.3003 9.37013 17.4472 9.37013 17.598C9.37013 17.7217 9.31986 17.8107 9.2928 17.8532C9.1768 18.0349 9.00666 18.0465 8.91773 18.0543C8.80173 18.062 8.6896 18.062 8.5736 18.062V17.1611C8.736 17.1572 9.01826 17.134 9.1652 17.2229Z" fill="white"/>
<path d="M11.9157 19.164C12.0201 18.9629 12.0356 18.7541 11.9505 18.5492C11.8461 18.2901 11.6335 18.1471 11.4015 18.0388C11.2004 17.946 10.9761 17.888 10.8099 17.7411C10.7441 17.6831 10.7016 17.5787 10.7016 17.4936C10.7016 17.2616 10.9027 17.1108 11.1308 17.1108C11.3976 17.1108 11.5484 17.2771 11.6528 17.4781L11.908 17.2732C11.7611 17.0064 11.5252 16.8053 11.154 16.8053C10.8524 16.8053 10.6591 16.9484 10.5817 17.0219C10.3961 17.1959 10.3652 17.4163 10.3652 17.5052C10.3652 17.7759 10.5547 17.9808 10.7557 18.1045C11.0651 18.2901 11.6644 18.3945 11.6644 18.8199C11.6644 19.1099 11.4092 19.2877 11.1308 19.2877C10.8215 19.2877 10.5779 19.0905 10.4425 18.816L10.1719 18.9861C10.3497 19.3573 10.6745 19.6048 11.1076 19.6048C11.4363 19.6048 11.7611 19.4501 11.9157 19.164Z" fill="white"/>
<path d="M14.7641 19.1485C15.0966 18.7851 15.143 18.3752 15.143 18.2012C15.143 17.8068 14.9613 17.4124 14.6597 17.1533C14.3929 16.9213 14.0372 16.7976 13.6776 16.7976C12.881 16.7976 12.2392 17.3815 12.2044 18.1471C12.1696 18.9513 12.8424 19.6125 13.6737 19.6125C13.8748 19.6125 14.3774 19.5661 14.7641 19.1485ZM14.5282 17.4781C14.7834 17.7488 14.8144 18.0736 14.8144 18.2051C14.8144 18.8121 14.2885 19.2955 13.666 19.2955C13.3334 19.2955 12.9932 19.1408 12.7766 18.8779C12.1812 18.1587 12.738 17.1108 13.6737 17.1108C13.9908 17.1108 14.3117 17.2461 14.5282 17.4781Z" fill="white"/>
<path d="M17.8083 19.6435H17.9513V16.844H17.6265V18.9629L15.5927 16.786H15.4535V19.57H15.7783V17.4588L16.9228 18.6652L17.8083 19.6435Z" fill="white"/>
<path d="M20.2794 19.57H20.6506L19.5061 16.7744H19.363L18.1837 19.57H18.5472L18.9068 18.6961H19.9353L20.2794 19.57ZM19.4326 17.4472L19.8154 18.3984H19.0344L19.4326 17.4472Z" fill="white"/>
<path d="M20.8834 19.5661H21.97V19.2529H21.216V16.8595H20.8834V19.5661Z" fill="white"/>
<path d="M23.3303 19.5661H24.4168V19.2529H23.6628V16.8595H23.3303V19.5661Z" fill="white"/>
<path d="M26.9683 19.1485C27.3008 18.7851 27.3472 18.3752 27.3472 18.2012C27.3472 17.8068 27.1655 17.4124 26.8639 17.1533C26.5971 16.9213 26.2413 16.7976 25.8817 16.7976C25.0852 16.7976 24.4433 17.3815 24.4085 18.1471C24.3737 18.9513 25.0465 19.6125 25.8779 19.6125C26.0789 19.6125 26.5816 19.5661 26.9683 19.1485ZM26.7324 17.4781C26.9876 17.7488 27.0185 18.0736 27.0185 18.2051C27.0185 18.8121 26.4927 19.2955 25.8701 19.2955C25.5376 19.2955 25.1973 19.1408 24.9808 18.8779C24.3853 18.1587 24.9421 17.1108 25.8779 17.1108C26.1949 17.1108 26.5159 17.2461 26.7324 17.4781Z" fill="white"/>
<path d="M29.4363 19.57H29.8075L28.663 16.7744H28.5199L27.3406 19.57H27.7041L28.0637 18.6961H29.0922L29.4363 19.57ZM28.5895 17.4472L28.9723 18.3984H28.1913L28.5895 17.4472Z" fill="white"/>
<path d="M32.3951 19.6435H32.5382V16.844H32.2134V18.9629L30.1795 16.786H30.0403V19.57H30.3651V17.4588L31.5097 18.6652L32.3951 19.6435Z" fill="white"/>
</svg>
