<svg width="37" height="25" viewBox="0 0 37 25" fill="none" xmlns="http://www.w3.org/2000/svg">
<path d="M0 2C0 0.89543 0.89543 0 2 0H35C36.1046 0 37 0.895431 37 2V23C37 24.1046 36.1046 25 35 25H2C0.895432 25 0 24.1046 0 23V2Z" fill="#E4E4E4"/>
<path fill-rule="evenodd" clip-rule="evenodd" d="M36.25 1H0.75C0.611929 1 0.5 1.11193 0.5 1.25C0.5 1.38807 0.611929 1.5 0.75 1.5H36.25C36.3881 1.5 36.5 1.38807 36.5 1.25C36.5 1.11193 36.3881 1 36.25 1ZM36.75 2H0.25C0.111929 2 0 2.11193 0 2.25C0 2.38807 0.111929 2.5 0.25 2.5H36.75C36.8881 2.5 37 2.38807 37 2.25C37 2.11193 36.8881 2 36.75 2ZM0.25 3H36.75C36.8881 3 37 3.11193 37 3.25C37 3.38807 36.8881 3.5 36.75 3.5H0.25C0.111929 3.5 0 3.38807 0 3.25C0 3.11193 0.111929 3 0.25 3ZM36.75 4H0.25C0.111929 4 0 4.11193 0 4.25C0 4.38807 0.111929 4.5 0.25 4.5H36.75C36.8881 4.5 37 4.38807 37 4.25C37 4.11193 36.8881 4 36.75 4ZM0.25 5H36.75C36.8881 5 37 5.11193 37 5.25C37 5.38807 36.8881 5.5 36.75 5.5H0.25C0.111929 5.5 0 5.38807 0 5.25C0 5.11193 0.111929 5 0.25 5ZM36.75 6H0.25C0.111929 6 0 6.11193 0 6.25C0 6.38807 0.111929 6.5 0.25 6.5H36.75C36.8881 6.5 37 6.38807 37 6.25C37 6.11193 36.8881 6 36.75 6ZM0.25 7H36.75C36.8881 7 37 7.11193 37 7.25C37 7.38807 36.8881 7.5 36.75 7.5H0.25C0.111929 7.5 0 7.38807 0 7.25C0 7.11193 0.111929 7 0.25 7ZM36.75 8H0.25C0.111929 8 0 8.11193 0 8.25C0 8.38807 0.111929 8.5 0.25 8.5H36.75C36.8881 8.5 37 8.38807 37 8.25C37 8.11193 36.8881 8 36.75 8ZM0.25 9H36.75C36.8881 9 37 9.11193 37 9.25C37 9.38807 36.8881 9.5 36.75 9.5H0.25C0.111929 9.5 0 9.38807 0 9.25C0 9.11193 0.111929 9 0.25 9ZM36.75 10H0.25C0.111929 10 0 10.1119 0 10.25C0 10.3881 0.111929 10.5 0.25 10.5H36.75C36.8881 10.5 37 10.3881 37 10.25C37 10.1119 36.8881 10 36.75 10ZM0.25 11H36.75C36.8881 11 37 11.1119 37 11.25C37 11.3881 36.8881 11.5 36.75 11.5H0.25C0.111929 11.5 0 11.3881 0 11.25C0 11.1119 0.111929 11 0.25 11ZM36.75 12H0.25C0.111929 12 0 12.1119 0 12.25C0 12.3881 0.111929 12.5 0.25 12.5H36.75C36.8881 12.5 37 12.3881 37 12.25C37 12.1119 36.8881 12 36.75 12ZM0.25 13H36.75C36.8881 13 37 13.1119 37 13.25C37 13.3881 36.8881 13.5 36.75 13.5H0.25C0.111929 13.5 0 13.3881 0 13.25C0 13.1119 0.111929 13 0.25 13ZM36.75 14H0.25C0.111929 14 0 14.1119 0 14.25C0 14.3881 0.111929 14.5 0.25 14.5H36.75C36.8881 14.5 37 14.3881 37 14.25C37 14.1119 36.8881 14 36.75 14ZM0.25 15H36.75C36.8881 15 37 15.1119 37 15.25C37 15.3881 36.8881 15.5 36.75 15.5H0.25C0.111929 15.5 0 15.3881 0 15.25C0 15.1119 0.111929 15 0.25 15ZM36.75 16H0.25C0.111929 16 0 16.1119 0 16.25C0 16.3881 0.111929 16.5 0.25 16.5H36.75C36.8881 16.5 37 16.3881 37 16.25C37 16.1119 36.8881 16 36.75 16ZM0.25 17H36.75C36.8881 17 37 17.1119 37 17.25C37 17.3881 36.8881 17.5 36.75 17.5H0.25C0.111929 17.5 0 17.3881 0 17.25C0 17.1119 0.111929 17 0.25 17ZM36.75 18H0.25C0.111929 18 0 18.1119 0 18.25C0 18.3881 0.111929 18.5 0.25 18.5H36.75C36.8881 18.5 37 18.3881 37 18.25C37 18.1119 36.8881 18 36.75 18ZM0.25 19H36.75C36.8881 19 37 19.1119 37 19.25C37 19.3881 36.8881 19.5 36.75 19.5H0.25C0.111929 19.5 0 19.3881 0 19.25C0 19.1119 0.111929 19 0.25 19ZM36.75 20H0.25C0.111929 20 0 20.1119 0 20.25C0 20.3881 0.111929 20.5 0.25 20.5H36.75C36.8881 20.5 37 20.3881 37 20.25C37 20.1119 36.8881 20 36.75 20ZM0.25 21H36.75C36.8881 21 37 21.1119 37 21.25C37 21.3881 36.8881 21.5 36.75 21.5H0.25C0.111929 21.5 0 21.3881 0 21.25C0 21.1119 0.111929 21 0.25 21ZM36.75 22H0.25C0.111929 22 0 22.1119 0 22.25C0 22.3881 0.111929 22.5 0.25 22.5H36.75C36.8881 22.5 37 22.3881 37 22.25C37 22.1119 36.8881 22 36.75 22ZM0.25 23H36.75C36.8881 23 37 23.1119 37 23.25C37 23.3881 36.8881 23.5 36.75 23.5H0.25C0.111929 23.5 0 23.3881 0 23.25C0 23.1119 0.111929 23 0.25 23ZM35.75 24H1.25C1.11193 24 1 24.1119 1 24.25C1 24.3881 1.11193 24.5 1.25 24.5H35.75C35.8881 24.5 36 24.3881 36 24.25C36 24.1119 35.8881 24 35.75 24Z" fill="#333541"/>
<path d="M10 6L13.5296 18H16.6508L18.9728 11.0447H19.0086L21.0764 18H24.2181L28 6H24.7977L22.5676 13.7487H22.5366L20.2148 6H17.7666L15.2873 13.7487H15.2562L13.1992 6H10Z" fill="black"/>
</svg>
