<svg width="37" height="25" viewBox="0 0 37 25" fill="none" xmlns="http://www.w3.org/2000/svg">
<path d="M0 2C0 0.89543 0.89543 0 2 0H35C36.1046 0 37 0.895431 37 2V23C37 24.1046 36.1046 25 35 25H2C0.895432 25 0 24.1046 0 23V2Z" fill="#444B52"/>
<path fill-rule="evenodd" clip-rule="evenodd" d="M36.25 1H0.75C0.611929 1 0.5 1.11193 0.5 1.25C0.5 1.38807 0.611929 1.5 0.75 1.5H36.25C36.3881 1.5 36.5 1.38807 36.5 1.25C36.5 1.11193 36.3881 1 36.25 1ZM36.75 2H0.25C0.111929 2 0 2.11193 0 2.25C0 2.38807 0.111929 2.5 0.25 2.5H36.75C36.8881 2.5 37 2.38807 37 2.25C37 2.11193 36.8881 2 36.75 2ZM0.25 3H36.75C36.8881 3 37 3.11193 37 3.25C37 3.38807 36.8881 3.5 36.75 3.5H0.25C0.111929 3.5 0 3.38807 0 3.25C0 3.11193 0.111929 3 0.25 3ZM36.75 4H0.25C0.111929 4 0 4.11193 0 4.25C0 4.38807 0.111929 4.5 0.25 4.5H36.75C36.8881 4.5 37 4.38807 37 4.25C37 4.11193 36.8881 4 36.75 4ZM0.25 5H36.75C36.8881 5 37 5.11193 37 5.25C37 5.38807 36.8881 5.5 36.75 5.5H0.25C0.111929 5.5 0 5.38807 0 5.25C0 5.11193 0.111929 5 0.25 5ZM36.75 6H0.25C0.111929 6 0 6.11193 0 6.25C0 6.38807 0.111929 6.5 0.25 6.5H36.75C36.8881 6.5 37 6.38807 37 6.25C37 6.11193 36.8881 6 36.75 6ZM0.25 7H36.75C36.8881 7 37 7.11193 37 7.25C37 7.38807 36.8881 7.5 36.75 7.5H0.25C0.111929 7.5 0 7.38807 0 7.25C0 7.11193 0.111929 7 0.25 7ZM36.75 8H0.25C0.111929 8 0 8.11193 0 8.25C0 8.38807 0.111929 8.5 0.25 8.5H36.75C36.8881 8.5 37 8.38807 37 8.25C37 8.11193 36.8881 8 36.75 8ZM0.25 9H36.75C36.8881 9 37 9.11193 37 9.25C37 9.38807 36.8881 9.5 36.75 9.5H0.25C0.111929 9.5 0 9.38807 0 9.25C0 9.11193 0.111929 9 0.25 9ZM36.75 10H0.25C0.111929 10 0 10.1119 0 10.25C0 10.3881 0.111929 10.5 0.25 10.5H36.75C36.8881 10.5 37 10.3881 37 10.25C37 10.1119 36.8881 10 36.75 10ZM0.25 11H36.75C36.8881 11 37 11.1119 37 11.25C37 11.3881 36.8881 11.5 36.75 11.5H0.25C0.111929 11.5 0 11.3881 0 11.25C0 11.1119 0.111929 11 0.25 11ZM36.75 12H0.25C0.111929 12 0 12.1119 0 12.25C0 12.3881 0.111929 12.5 0.25 12.5H36.75C36.8881 12.5 37 12.3881 37 12.25C37 12.1119 36.8881 12 36.75 12ZM0.25 13H36.75C36.8881 13 37 13.1119 37 13.25C37 13.3881 36.8881 13.5 36.75 13.5H0.25C0.111929 13.5 0 13.3881 0 13.25C0 13.1119 0.111929 13 0.25 13ZM36.75 14H0.25C0.111929 14 0 14.1119 0 14.25C0 14.3881 0.111929 14.5 0.25 14.5H36.75C36.8881 14.5 37 14.3881 37 14.25C37 14.1119 36.8881 14 36.75 14ZM0.25 15H36.75C36.8881 15 37 15.1119 37 15.25C37 15.3881 36.8881 15.5 36.75 15.5H0.25C0.111929 15.5 0 15.3881 0 15.25C0 15.1119 0.111929 15 0.25 15ZM36.75 16H0.25C0.111929 16 0 16.1119 0 16.25C0 16.3881 0.111929 16.5 0.25 16.5H36.75C36.8881 16.5 37 16.3881 37 16.25C37 16.1119 36.8881 16 36.75 16ZM0.25 17H36.75C36.8881 17 37 17.1119 37 17.25C37 17.3881 36.8881 17.5 36.75 17.5H0.25C0.111929 17.5 0 17.3881 0 17.25C0 17.1119 0.111929 17 0.25 17ZM36.75 18H0.25C0.111929 18 0 18.1119 0 18.25C0 18.3881 0.111929 18.5 0.25 18.5H36.75C36.8881 18.5 37 18.3881 37 18.25C37 18.1119 36.8881 18 36.75 18ZM0.25 19H36.75C36.8881 19 37 19.1119 37 19.25C37 19.3881 36.8881 19.5 36.75 19.5H0.25C0.111929 19.5 0 19.3881 0 19.25C0 19.1119 0.111929 19 0.25 19ZM36.75 20H0.25C0.111929 20 0 20.1119 0 20.25C0 20.3881 0.111929 20.5 0.25 20.5H36.75C36.8881 20.5 37 20.3881 37 20.25C37 20.1119 36.8881 20 36.75 20ZM0.25 21H36.75C36.8881 21 37 21.1119 37 21.25C37 21.3881 36.8881 21.5 36.75 21.5H0.25C0.111929 21.5 0 21.3881 0 21.25C0 21.1119 0.111929 21 0.25 21ZM36.75 22H0.25C0.111929 22 0 22.1119 0 22.25C0 22.3881 0.111929 22.5 0.25 22.5H36.75C36.8881 22.5 37 22.3881 37 22.25C37 22.1119 36.8881 22 36.75 22ZM0.25 23H36.75C36.8881 23 37 23.1119 37 23.25C37 23.3881 36.8881 23.5 36.75 23.5H0.25C0.111929 23.5 0 23.3881 0 23.25C0 23.1119 0.111929 23 0.25 23ZM35.75 24H1.25C1.11193 24 1 24.1119 1 24.25C1 24.3881 1.11193 24.5 1.25 24.5H35.75C35.8881 24.5 36 24.3881 36 24.25C36 24.1119 35.8881 24 35.75 24Z" fill="#191A20"/>
<path d="M21.5538 2.42853C21.6063 2.38203 21.6303 2.30853 21.6303 2.24253C21.6303 2.03253 21.4953 1.94253 21.2823 1.94253H21.0063V3.00003H21.1998C21.2913 3.00003 21.3558 3.00003 21.4068 2.99403C21.5853 2.97603 21.7083 2.85753 21.7083 2.68203C21.7083 2.57703 21.6588 2.47203 21.5538 2.42853ZM21.2298 2.80503V2.56803H21.3318C21.4083 2.56803 21.4818 2.60103 21.4818 2.68803C21.4818 2.78253 21.4128 2.80503 21.3243 2.80503H21.2298ZM21.2298 2.37603V2.14653C21.3213 2.14653 21.4143 2.15253 21.4143 2.25753C21.4143 2.36403 21.3363 2.37603 21.2553 2.37603H21.2298Z" fill="white"/>
<path d="M22.0546 1.94253H21.8281V3.00003H22.3771V2.79753H22.0546V1.94253Z" fill="white"/>
<path d="M23.0121 1.94253H22.8531L22.4376 3.00003H22.6596L22.7436 2.76003H23.1021L23.1801 3.00003H23.3991L23.0121 1.94253ZM22.8111 2.56353L22.9311 2.21853L23.0391 2.56353H22.8111Z" fill="white"/>
<path d="M24.3499 2.25603V2.00703C24.2674 1.95303 24.1579 1.92303 24.0514 1.92303C23.8894 1.92303 23.7169 1.99353 23.6074 2.10603C23.5144 2.20353 23.4664 2.33553 23.4664 2.47053C23.4664 2.78403 23.7199 3.01503 24.0499 3.01503C24.1714 3.01503 24.2599 2.97903 24.3499 2.93103V2.68503C24.2419 2.77053 24.1474 2.80803 24.0514 2.80803C23.8429 2.80803 23.6929 2.66103 23.6929 2.47203C23.6929 2.43603 23.6989 2.34003 23.7619 2.26203C23.8264 2.18253 23.9404 2.13303 24.0514 2.13303C24.1819 2.13303 24.2749 2.19003 24.3499 2.25603Z" fill="white"/>
<path d="M24.7205 1.94253H24.5V3.00003H24.7205V2.56953L25.0535 3.00003H25.3205L24.881 2.44203L25.286 1.94253H25.034L24.7205 2.34903V1.94253Z" fill="white"/>
<path d="M26.7409 2.86803L26.7424 2.67603L26.6689 2.76603C26.5939 2.85603 26.4754 2.89803 26.3554 2.89803C26.1079 2.89803 25.9159 2.70153 25.9159 2.47353C25.9159 2.23653 26.1169 2.04603 26.3614 2.04603C26.5099 2.04603 26.6029 2.11203 26.6404 2.14803C26.6689 2.17353 26.6914 2.19303 26.7379 2.27253L26.7409 2.07603C26.6464 1.96353 26.4964 1.92603 26.3554 1.92603C26.0299 1.92603 25.7884 2.17203 25.7884 2.47053C25.7884 2.77653 26.0359 3.01953 26.3539 3.01953C26.5024 3.01953 26.6554 2.96103 26.7409 2.86803Z" fill="white"/>
<path d="M27.3751 2.99853H27.5416L27.1711 2.52903C27.2461 2.52153 27.3076 2.50653 27.3646 2.45253C27.4456 2.37603 27.4576 2.27703 27.4576 2.23653C27.4576 2.12703 27.3976 2.02803 27.2941 1.98003C27.2581 1.96353 27.2251 1.95603 27.1876 1.94853C27.0481 1.93803 26.9791 1.94403 26.8921 1.94853V3.00003H27.0211V2.55153L27.3751 2.99853ZM27.2476 2.08953C27.2926 2.11953 27.3271 2.17653 27.3271 2.23503C27.3271 2.28303 27.3076 2.31753 27.2971 2.33403C27.2521 2.40453 27.1861 2.40903 27.1516 2.41203C27.1066 2.41503 27.0631 2.41503 27.0181 2.41503V2.06553C27.0811 2.06403 27.1906 2.05503 27.2476 2.08953Z" fill="white"/>
<path d="M27.6787 2.99853H28.2232V2.87853H27.8062V2.49153H28.2157V2.37603H27.8077V2.06403H28.2157V1.94853H27.6787V2.99853Z" fill="white"/>
<path d="M29.2355 2.60103C29.24 2.58003 29.2505 2.52903 29.2505 2.47053C29.2505 2.27553 29.15 2.14803 29.099 2.09553C29.009 2.00703 28.9175 1.98303 28.868 1.97253C28.724 1.93953 28.583 1.94403 28.436 1.94853V2.99853C28.5515 3.00153 28.6445 3.00453 28.736 2.99403C28.9745 2.96703 29.174 2.83653 29.2355 2.60103ZM28.943 2.13003C29.006 2.17053 29.126 2.27403 29.126 2.47653C29.126 2.53053 29.12 2.63703 29.0225 2.73903C28.8905 2.87703 28.736 2.88603 28.5635 2.88003V2.06403C28.7045 2.05953 28.8305 2.05953 28.943 2.13003Z" fill="white"/>
<path d="M29.3706 3.00003H29.4966V1.94853H29.3706V3.00003Z" fill="white"/>
<path d="M30.0037 2.06553H30.2887V1.94853H29.5867V2.06553H29.8732V3.00003H30.0037V2.06553Z" fill="white"/>
<path d="M31.7389 2.86803L31.7404 2.67603L31.6669 2.76603C31.5919 2.85603 31.4734 2.89803 31.3534 2.89803C31.1059 2.89803 30.9139 2.70153 30.9139 2.47353C30.9139 2.23653 31.1149 2.04603 31.3594 2.04603C31.5079 2.04603 31.6009 2.11203 31.6384 2.14803C31.6669 2.17353 31.6894 2.19303 31.7359 2.27253L31.7389 2.07603C31.6444 1.96353 31.4944 1.92603 31.3534 1.92603C31.0279 1.92603 30.7864 2.17203 30.7864 2.47053C30.7864 2.77653 31.0339 3.01953 31.3519 3.01953C31.5004 3.01953 31.6534 2.96103 31.7389 2.86803Z" fill="white"/>
<path d="M32.6109 3.00003H32.7549L32.3109 1.91553H32.2554L31.7979 3.00003H31.9389L32.0784 2.66103H32.4774L32.6109 3.00003ZM32.2824 2.17653L32.4309 2.54553H32.1279L32.2824 2.17653Z" fill="white"/>
<path d="M33.3282 2.99853H33.4947L33.1242 2.52903C33.1992 2.52153 33.2607 2.50653 33.3177 2.45253C33.3987 2.37603 33.4107 2.27703 33.4107 2.23653C33.4107 2.12703 33.3507 2.02803 33.2472 1.98003C33.2112 1.96353 33.1782 1.95603 33.1407 1.94853C33.0012 1.93803 32.9322 1.94403 32.8452 1.94853V3.00003H32.9742V2.55153L33.3282 2.99853ZM33.2007 2.08953C33.2457 2.11953 33.2802 2.17653 33.2802 2.23503C33.2802 2.28303 33.2607 2.31753 33.2502 2.33403C33.2052 2.40453 33.1392 2.40903 33.1047 2.41203C33.0597 2.41503 33.0162 2.41503 32.9712 2.41503V2.06553C33.0342 2.06403 33.1437 2.05503 33.2007 2.08953Z" fill="white"/>
<path d="M34.4313 2.60103C34.4358 2.58003 34.4463 2.52903 34.4463 2.47053C34.4463 2.27553 34.3458 2.14803 34.2948 2.09553C34.2048 2.00703 34.1133 1.98303 34.0638 1.97253C33.9198 1.93953 33.7788 1.94403 33.6318 1.94853V2.99853C33.7473 3.00153 33.8403 3.00453 33.9318 2.99403C34.1703 2.96703 34.3698 2.83653 34.4313 2.60103ZM34.1388 2.13003C34.2018 2.17053 34.3218 2.27403 34.3218 2.47653C34.3218 2.53053 34.3158 2.63703 34.2183 2.73903C34.0863 2.87703 33.9318 2.88603 33.7593 2.88003V2.06403C33.9003 2.05953 34.0263 2.05953 34.1388 2.13003Z" fill="white"/>
<path d="M10 6L13.5296 18H16.6508L18.9728 11.0447H19.0086L21.0764 18H24.2181L28 6H24.7977L22.5676 13.7487H22.5366L20.2148 6H17.7666L15.2873 13.7487H15.2562L13.1992 6H10Z" fill="black"/>
<path d="M30.4623 22.5894H29.8135L30.219 20.0972H30.8679L30.4623 22.5894" fill="white"/>
<path d="M29.2676 20.0972L28.6489 21.8113L28.5758 21.4422L28.5759 21.4423L28.3575 20.3216C28.3575 20.3216 28.3311 20.0972 28.0497 20.0972H27.0271L27.0151 20.1393C27.0151 20.1393 27.3279 20.2044 27.6938 20.4243L28.2575 22.5894H28.9336L29.9659 20.0972H29.2676" fill="white"/>
<path fill-rule="evenodd" clip-rule="evenodd" d="M34.967 22.5894H34.3712L34.2952 22.2193H33.4703L33.335 22.5894H32.6587L33.6264 20.2829C33.6264 20.2829 33.685 20.0972 33.9259 20.0972H34.4476L34.967 22.5894ZM33.9984 20.7751L33.6574 21.7078H34.1902L33.9984 20.7751Z" fill="white"/>
<path d="M32.7096 20.6964L32.8022 20.1612C32.8022 20.1612 32.5164 20.0525 32.2186 20.0525C31.8966 20.0525 31.132 20.1933 31.132 20.8776C31.132 21.5215 32.0294 21.5295 32.0294 21.8676C32.0294 22.2056 31.2244 22.1452 30.9588 21.932L30.8623 22.4915C30.8623 22.4915 31.152 22.6323 31.5948 22.6323C32.0375 22.6323 32.7056 22.4029 32.7056 21.779C32.7056 21.131 31.8 21.0707 31.8 20.789C31.8 20.5072 32.432 20.5434 32.7096 20.6964" fill="white"/>
<path d="M28.5759 21.4423L28.3575 20.3216C28.3575 20.3216 28.3311 20.0972 28.0497 20.0972H27.0271L27.0151 20.1393C27.0151 20.1393 27.5067 20.2412 27.9782 20.6228C28.4289 20.9876 28.5759 21.4423 28.5759 21.4423" fill="white"/>
<rect x="2" y="9" width="5" height="4" rx="0.5" fill="#C0B5A1"/>
</svg>
