<svg width="37" height="24" viewBox="0 0 37 24" fill="none" xmlns="http://www.w3.org/2000/svg">
<rect width="37" height="24" rx="1.40952" fill="#374E92"/>
<mask id="mask0_578_41618" style="mask-type:alpha" maskUnits="userSpaceOnUse" x="0" y="0" width="37" height="24">
<rect width="37" height="24" rx="1.40952" fill="white"/>
</mask>
<g mask="url(#mask0_578_41618)">
<path d="M23.0025 11.6572C23.0025 7.87265 24.2627 4.39921 26.3747 1.63496C26.816 1.05742 27.294 0.511248 27.8052 0H24.2349C21.7744 3.22027 20.3096 7.26494 20.3096 11.6572C20.3096 16.3672 21.994 20.6774 24.7841 24H28.5343C27.9309 23.4666 27.3666 22.8877 26.8464 22.2682C24.4513 19.416 23.0025 15.7148 23.0025 11.6572Z" fill="#D2373C"/>
<path fill-rule="evenodd" clip-rule="evenodd" d="M30.1297 0C27.8692 2.73602 26.5078 6.26467 26.5078 10.1164C26.5078 16.1309 29.8273 21.3576 34.7063 24.0088H36.4079L36.9995 23.1019V22.1312C32.4299 20.1503 29.2008 15.5377 29.2008 10.1164C29.2008 6.02064 31.0438 2.38649 33.9155 0H30.1297Z" fill="#F7B931"/>
<path d="M37 1.92773C34.6236 3.86785 33.1025 6.84527 33.1025 10.1836C33.1025 13.522 34.6236 16.4994 37 18.4395V14.4195C36.2386 13.2 35.7955 11.7492 35.7955 10.1836C35.7955 8.61806 36.2386 7.16725 37 5.94779V1.92773Z" fill="#2B6EB3"/>
<path d="M37.0005 1.8584C32.6974 2.56053 29.4102 6.35039 29.4102 10.9203C29.4102 15.4902 32.6974 19.28 37.0005 19.9822V17.236C34.2172 16.5708 32.1031 14.0242 32.1031 10.9203C32.1031 7.81634 34.2172 5.26978 37.0005 4.60453V1.8584Z" fill="#783F92"/>
<path d="M29.4657 0C25.8441 2.56661 23.4746 6.83079 23.4746 11.6572C23.4746 16.9429 26.3164 21.5542 30.5324 24H36.9995V23.1582C31.0136 22.9153 26.1676 17.8973 26.1676 11.6572C26.1676 5.59185 30.746 0.681121 36.4995 0.187835V0H29.4657Z" fill="#4EAF53"/>
<g style="mix-blend-mode:overlay" opacity="0.9">
<mask id="path-8-inside-1_578_41618" fill="white">
<path fill-rule="evenodd" clip-rule="evenodd" d="M1.40952 0.149609H35.5905C36.2863 0.149609 36.8504 0.713692 36.8504 1.40952V22.5905C36.8504 23.2863 36.2863 23.8504 35.5905 23.8504H1.40952C0.713692 23.8504 0.149609 23.2863 0.149609 22.5905V1.40952C0.149609 0.713692 0.713692 0.149609 1.40952 0.149609ZM0 1.40952C0 0.631065 0.631065 0 1.40952 0H35.5905C36.3689 0 37 0.631065 37 1.40952V22.5905C37 23.3689 36.3689 24 35.5905 24H1.40952C0.631065 24 0 23.3689 0 22.5905V1.40952ZM13.2141 6.36475L15.2478 12.7419L15.3284 12.9946L15.4044 12.7404L17.3105 6.36475H19.6891L21.5952 12.7404L21.6712 12.9946L21.7518 12.7419L23.7855 6.36475H26.6675H26.8248L26.7763 6.51436L23.2569 17.3703H20.4819L18.7076 11.2659L18.6319 11.0056L18.5514 11.2644L16.6498 17.3703H13.8748L10.2251 6.51436L10.1748 6.36475H10.3326H13.2141ZM15.4717 13.0374L17.4219 6.51436H19.5777L21.5279 13.0374L21.6666 13.5015L21.8138 13.04L23.8948 6.51436H26.619L23.1482 17.2207H20.5943L18.7756 10.9639L18.6369 10.4866L18.4891 10.9611L16.5397 17.2207H13.9823L10.3829 6.51436H13.1048L15.1858 13.04L15.333 13.5015L15.4717 13.0374Z"/>
</mask>
<path d="M15.2478 12.7419L15.3903 12.6964L15.2478 12.7419ZM13.2141 6.36475L13.3566 6.31929L13.3234 6.21514H13.2141V6.36475ZM15.3284 12.9946L15.1858 13.04L15.333 13.5015L15.4717 13.0374L15.3284 12.9946ZM15.4044 12.7404L15.5477 12.7833L15.4044 12.7404ZM17.3105 6.36475V6.21514H17.1991L17.1672 6.32189L17.3105 6.36475ZM19.6891 6.36475L19.8324 6.32189L19.8005 6.21514H19.6891V6.36475ZM21.5952 12.7404L21.7386 12.6976V12.6976L21.5952 12.7404ZM21.6712 12.9946L21.5279 13.0374L21.6666 13.5015L21.8138 13.04L21.6712 12.9946ZM21.7518 12.7419L21.6093 12.6964L21.7518 12.7419ZM23.7855 6.36475V6.21514H23.6762L23.643 6.31929L23.7855 6.36475ZM26.8248 6.36475L26.9671 6.41088L27.0306 6.21514H26.8248V6.36475ZM26.7763 6.51436L26.634 6.46822L26.7763 6.51436ZM23.2569 17.3703V17.5199H23.3657L23.3993 17.4164L23.2569 17.3703ZM20.4819 17.3703L20.3383 17.412L20.3696 17.5199H20.4819V17.3703ZM18.7076 11.2659L18.5639 11.3076V11.3076L18.7076 11.2659ZM18.6319 11.0056L18.7756 10.9639L18.6369 10.4866L18.4891 10.9611L18.6319 11.0056ZM18.5514 11.2644L18.6942 11.3089V11.3089L18.5514 11.2644ZM16.6498 17.3703V17.5199H16.7599L16.7926 17.4148L16.6498 17.3703ZM13.8748 17.3703L13.733 17.4179L13.7673 17.5199H13.8748V17.3703ZM10.2251 6.51436L10.0833 6.56203L10.2251 6.51436ZM10.1748 6.36475V6.21514H9.96667L10.033 6.41242L10.1748 6.36475ZM17.4219 6.51436V6.36475H17.3105L17.2786 6.4715L17.4219 6.51436ZM15.4717 13.0374L15.6151 13.0803L15.4717 13.0374ZM19.5777 6.51436L19.721 6.4715L19.6891 6.36475H19.5777V6.51436ZM21.5279 13.0374L21.3846 13.0803L21.5279 13.0374ZM21.6666 13.5015L21.5233 13.5443L21.662 14.0083L21.8092 13.5469L21.6666 13.5015ZM21.8138 13.04L21.6712 12.9946L21.8138 13.04ZM23.8948 6.51436V6.36475H23.7855L23.7523 6.4689L23.8948 6.51436ZM26.619 6.51436L26.7613 6.56049L26.8248 6.36475H26.619V6.51436ZM23.1482 17.2207V17.3703H23.2569L23.2905 17.2668L23.1482 17.2207ZM20.5943 17.2207L20.4506 17.2624L20.4819 17.3703H20.5943V17.2207ZM18.7756 10.9639L18.9193 10.9221L18.7756 10.9639ZM18.6369 10.4866L18.7806 10.4449L18.6418 9.9676L18.494 10.4421L18.6369 10.4866ZM18.4891 10.9611L18.6319 11.0056V11.0056L18.4891 10.9611ZM16.5397 17.2207V17.3703H16.6498L16.6825 17.2651L16.5397 17.2207ZM13.9823 17.2207L13.8405 17.2683L13.8748 17.3703H13.9823V17.2207ZM10.3829 6.51436V6.36475H10.1748L10.2411 6.56203L10.3829 6.51436ZM13.1048 6.51436L13.2473 6.4689L13.2141 6.36475H13.1048V6.51436ZM15.1858 13.04L15.3284 12.9946L15.1858 13.04ZM15.333 13.5015L15.1904 13.5469L15.3376 14.0083L15.4763 13.5443L15.333 13.5015ZM35.5905 0H1.40952V0.299219H35.5905V0ZM37 1.40952C37 0.631065 36.3689 0 35.5905 0V0.299219C36.2037 0.299219 36.7008 0.796319 36.7008 1.40952H37ZM37 22.5905V1.40952H36.7008V22.5905H37ZM35.5905 24C36.3689 24 37 23.3689 37 22.5905H36.7008C36.7008 23.2037 36.2037 23.7008 35.5905 23.7008V24ZM1.40952 24H35.5905V23.7008H1.40952V24ZM0 22.5905C0 23.3689 0.631065 24 1.40952 24V23.7008C0.796319 23.7008 0.299219 23.2037 0.299219 22.5905H0ZM0 1.40952V22.5905H0.299219V1.40952H0ZM1.40952 0C0.631065 0 0 0.631065 0 1.40952H0.299219C0.299219 0.796319 0.796319 0.299219 1.40952 0.299219V0ZM1.40952 -0.149609C0.548438 -0.149609 -0.149609 0.548437 -0.149609 1.40952H0.149609C0.149609 0.713692 0.713692 0.149609 1.40952 0.149609V-0.149609ZM35.5905 -0.149609H1.40952V0.149609H35.5905V-0.149609ZM37.1496 1.40952C37.1496 0.548438 36.4516 -0.149609 35.5905 -0.149609V0.149609C36.2863 0.149609 36.8504 0.713692 36.8504 1.40952H37.1496ZM37.1496 22.5905V1.40952H36.8504V22.5905H37.1496ZM35.5905 24.1496C36.4516 24.1496 37.1496 23.4516 37.1496 22.5905H36.8504C36.8504 23.2863 36.2863 23.8504 35.5905 23.8504V24.1496ZM1.40952 24.1496H35.5905V23.8504H1.40952V24.1496ZM-0.149609 22.5905C-0.149609 23.4516 0.548438 24.1496 1.40952 24.1496V23.8504C0.713692 23.8504 0.149609 23.2863 0.149609 22.5905H-0.149609ZM-0.149609 1.40952V22.5905H0.149609V1.40952H-0.149609ZM15.3903 12.6964L13.3566 6.31929L13.0716 6.4102L15.1052 12.7873L15.3903 12.6964ZM15.4709 12.9491L15.3903 12.6964L15.1052 12.7873L15.1858 13.04L15.4709 12.9491ZM15.261 12.6976L15.185 12.9517L15.4717 13.0374L15.5477 12.7833L15.261 12.6976ZM17.1672 6.32189L15.261 12.6976L15.5477 12.7833L17.4539 6.4076L17.1672 6.32189ZM19.6891 6.21514H17.3105V6.51436H19.6891V6.21514ZM21.7386 12.6976L19.8324 6.32189L19.5457 6.4076L21.4519 12.7833L21.7386 12.6976ZM21.8146 12.9517L21.7386 12.6976L21.4519 12.7833L21.5279 13.0374L21.8146 12.9517ZM21.6093 12.6964L21.5287 12.9491L21.8138 13.04L21.8944 12.7873L21.6093 12.6964ZM23.643 6.31929L21.6093 12.6964L21.8944 12.7873L23.9281 6.4102L23.643 6.31929ZM26.6675 6.21514H23.7855V6.51436H26.6675V6.21514ZM26.8248 6.21514H26.6675V6.51436H26.8248V6.21514ZM26.9186 6.56049L26.9671 6.41088L26.6825 6.31861L26.634 6.46822L26.9186 6.56049ZM23.3993 17.4164L26.9186 6.56049L26.634 6.46822L23.1146 17.3241L23.3993 17.4164ZM20.4819 17.5199H23.2569V17.2207H20.4819V17.5199ZM18.5639 11.3076L20.3383 17.412L20.6256 17.3285L18.8513 11.2241L18.5639 11.3076ZM18.4883 11.0474L18.5639 11.3076L18.8513 11.2241L18.7756 10.9639L18.4883 11.0474ZM18.6942 11.3089L18.7748 11.0501L18.4891 10.9611L18.4085 11.2199L18.6942 11.3089ZM16.7926 17.4148L18.6942 11.3089L18.4085 11.2199L16.507 17.3258L16.7926 17.4148ZM13.8748 17.5199H16.6498V17.2207H13.8748V17.5199ZM10.0833 6.56203L13.733 17.4179L14.0166 17.3226L10.3669 6.46668L10.0833 6.56203ZM10.033 6.41242L10.0833 6.56203L10.3669 6.46668L10.3166 6.31707L10.033 6.41242ZM10.3326 6.21514H10.1748V6.51436H10.3326V6.21514ZM13.2141 6.21514H10.3326V6.51436H13.2141V6.21514ZM17.2786 6.4715L15.3284 12.9946L15.6151 13.0803L17.5653 6.55721L17.2786 6.4715ZM19.5777 6.36475H17.4219V6.66397H19.5777V6.36475ZM21.6712 12.9946L19.721 6.4715L19.4343 6.55721L21.3846 13.0803L21.6712 12.9946ZM21.81 13.4586L21.6712 12.9946L21.3846 13.0803L21.5233 13.5443L21.81 13.4586ZM21.6712 12.9946L21.5241 13.456L21.8092 13.5469L21.9563 13.0855L21.6712 12.9946ZM23.7523 6.4689L21.6712 12.9946L21.9563 13.0855L24.0374 6.55981L23.7523 6.4689ZM26.619 6.36475H23.8948V6.66397H26.619V6.36475ZM23.2905 17.2668L26.7613 6.56049L26.4767 6.46822L23.0059 17.1745L23.2905 17.2668ZM20.5943 17.3703H23.1482V17.071H20.5943V17.3703ZM18.6319 11.0056L20.4506 17.2624L20.7379 17.1789L18.9193 10.9221L18.6319 11.0056ZM18.4932 10.5284L18.6319 11.0056L18.9193 10.9221L18.7806 10.4449L18.4932 10.5284ZM18.6319 11.0056L18.7797 10.5311L18.494 10.4421L18.3463 10.9167L18.6319 11.0056ZM16.6825 17.2651L18.6319 11.0056L18.3463 10.9167L16.3969 17.1762L16.6825 17.2651ZM13.9823 17.3703H16.5397V17.071H13.9823V17.3703ZM10.2411 6.56203L13.8405 17.2683L14.1242 17.173L10.5248 6.46668L10.2411 6.56203ZM13.1048 6.36475H10.3829V6.66397H13.1048V6.36475ZM15.3284 12.9946L13.2473 6.4689L12.9622 6.55981L15.0433 13.0855L15.3284 12.9946ZM15.4755 13.456L15.3284 12.9946L15.0433 13.0855L15.1904 13.5469L15.4755 13.456ZM15.3284 12.9946L15.1896 13.4586L15.4763 13.5443L15.6151 13.0803L15.3284 12.9946Z" fill="url(#paint0_linear_578_41618)" mask="url(#path-8-inside-1_578_41618)"/>
<path d="M15.2478 12.7419L15.3903 12.6964L15.2478 12.7419ZM13.2141 6.36475L13.3566 6.31929L13.3234 6.21514H13.2141V6.36475ZM15.3284 12.9946L15.1858 13.04L15.333 13.5015L15.4717 13.0374L15.3284 12.9946ZM15.4044 12.7404L15.5477 12.7833L15.4044 12.7404ZM17.3105 6.36475V6.21514H17.1991L17.1672 6.32189L17.3105 6.36475ZM19.6891 6.36475L19.8324 6.32189L19.8005 6.21514H19.6891V6.36475ZM21.5952 12.7404L21.7386 12.6976V12.6976L21.5952 12.7404ZM21.6712 12.9946L21.5279 13.0374L21.6666 13.5015L21.8138 13.04L21.6712 12.9946ZM21.7518 12.7419L21.6093 12.6964L21.7518 12.7419ZM23.7855 6.36475V6.21514H23.6762L23.643 6.31929L23.7855 6.36475ZM26.8248 6.36475L26.9671 6.41088L27.0306 6.21514H26.8248V6.36475ZM26.7763 6.51436L26.634 6.46822L26.7763 6.51436ZM23.2569 17.3703V17.5199H23.3657L23.3993 17.4164L23.2569 17.3703ZM20.4819 17.3703L20.3383 17.412L20.3696 17.5199H20.4819V17.3703ZM18.7076 11.2659L18.5639 11.3076V11.3076L18.7076 11.2659ZM18.6319 11.0056L18.7756 10.9639L18.6369 10.4866L18.4891 10.9611L18.6319 11.0056ZM18.5514 11.2644L18.6942 11.3089V11.3089L18.5514 11.2644ZM16.6498 17.3703V17.5199H16.7599L16.7926 17.4148L16.6498 17.3703ZM13.8748 17.3703L13.733 17.4179L13.7673 17.5199H13.8748V17.3703ZM10.2251 6.51436L10.0833 6.56203L10.2251 6.51436ZM10.1748 6.36475V6.21514H9.96667L10.033 6.41242L10.1748 6.36475ZM17.4219 6.51436V6.36475H17.3105L17.2786 6.4715L17.4219 6.51436ZM15.4717 13.0374L15.6151 13.0803L15.4717 13.0374ZM19.5777 6.51436L19.721 6.4715L19.6891 6.36475H19.5777V6.51436ZM21.5279 13.0374L21.3846 13.0803L21.5279 13.0374ZM21.6666 13.5015L21.5233 13.5443L21.662 14.0083L21.8092 13.5469L21.6666 13.5015ZM21.8138 13.04L21.6712 12.9946L21.8138 13.04ZM23.8948 6.51436V6.36475H23.7855L23.7523 6.4689L23.8948 6.51436ZM26.619 6.51436L26.7613 6.56049L26.8248 6.36475H26.619V6.51436ZM23.1482 17.2207V17.3703H23.2569L23.2905 17.2668L23.1482 17.2207ZM20.5943 17.2207L20.4506 17.2624L20.4819 17.3703H20.5943V17.2207ZM18.7756 10.9639L18.9193 10.9221L18.7756 10.9639ZM18.6369 10.4866L18.7806 10.4449L18.6418 9.9676L18.494 10.4421L18.6369 10.4866ZM18.4891 10.9611L18.6319 11.0056V11.0056L18.4891 10.9611ZM16.5397 17.2207V17.3703H16.6498L16.6825 17.2651L16.5397 17.2207ZM13.9823 17.2207L13.8405 17.2683L13.8748 17.3703H13.9823V17.2207ZM10.3829 6.51436V6.36475H10.1748L10.2411 6.56203L10.3829 6.51436ZM13.1048 6.51436L13.2473 6.4689L13.2141 6.36475H13.1048V6.51436ZM15.1858 13.04L15.3284 12.9946L15.1858 13.04ZM15.333 13.5015L15.1904 13.5469L15.3376 14.0083L15.4763 13.5443L15.333 13.5015ZM35.5905 0H1.40952V0.299219H35.5905V0ZM37 1.40952C37 0.631065 36.3689 0 35.5905 0V0.299219C36.2037 0.299219 36.7008 0.796319 36.7008 1.40952H37ZM37 22.5905V1.40952H36.7008V22.5905H37ZM35.5905 24C36.3689 24 37 23.3689 37 22.5905H36.7008C36.7008 23.2037 36.2037 23.7008 35.5905 23.7008V24ZM1.40952 24H35.5905V23.7008H1.40952V24ZM0 22.5905C0 23.3689 0.631065 24 1.40952 24V23.7008C0.796319 23.7008 0.299219 23.2037 0.299219 22.5905H0ZM0 1.40952V22.5905H0.299219V1.40952H0ZM1.40952 0C0.631065 0 0 0.631065 0 1.40952H0.299219C0.299219 0.796319 0.796319 0.299219 1.40952 0.299219V0ZM1.40952 -0.149609C0.548438 -0.149609 -0.149609 0.548437 -0.149609 1.40952H0.149609C0.149609 0.713692 0.713692 0.149609 1.40952 0.149609V-0.149609ZM35.5905 -0.149609H1.40952V0.149609H35.5905V-0.149609ZM37.1496 1.40952C37.1496 0.548438 36.4516 -0.149609 35.5905 -0.149609V0.149609C36.2863 0.149609 36.8504 0.713692 36.8504 1.40952H37.1496ZM37.1496 22.5905V1.40952H36.8504V22.5905H37.1496ZM35.5905 24.1496C36.4516 24.1496 37.1496 23.4516 37.1496 22.5905H36.8504C36.8504 23.2863 36.2863 23.8504 35.5905 23.8504V24.1496ZM1.40952 24.1496H35.5905V23.8504H1.40952V24.1496ZM-0.149609 22.5905C-0.149609 23.4516 0.548438 24.1496 1.40952 24.1496V23.8504C0.713692 23.8504 0.149609 23.2863 0.149609 22.5905H-0.149609ZM-0.149609 1.40952V22.5905H0.149609V1.40952H-0.149609ZM15.3903 12.6964L13.3566 6.31929L13.0716 6.4102L15.1052 12.7873L15.3903 12.6964ZM15.4709 12.9491L15.3903 12.6964L15.1052 12.7873L15.1858 13.04L15.4709 12.9491ZM15.261 12.6976L15.185 12.9517L15.4717 13.0374L15.5477 12.7833L15.261 12.6976ZM17.1672 6.32189L15.261 12.6976L15.5477 12.7833L17.4539 6.4076L17.1672 6.32189ZM19.6891 6.21514H17.3105V6.51436H19.6891V6.21514ZM21.7386 12.6976L19.8324 6.32189L19.5457 6.4076L21.4519 12.7833L21.7386 12.6976ZM21.8146 12.9517L21.7386 12.6976L21.4519 12.7833L21.5279 13.0374L21.8146 12.9517ZM21.6093 12.6964L21.5287 12.9491L21.8138 13.04L21.8944 12.7873L21.6093 12.6964ZM23.643 6.31929L21.6093 12.6964L21.8944 12.7873L23.9281 6.4102L23.643 6.31929ZM26.6675 6.21514H23.7855V6.51436H26.6675V6.21514ZM26.8248 6.21514H26.6675V6.51436H26.8248V6.21514ZM26.9186 6.56049L26.9671 6.41088L26.6825 6.31861L26.634 6.46822L26.9186 6.56049ZM23.3993 17.4164L26.9186 6.56049L26.634 6.46822L23.1146 17.3241L23.3993 17.4164ZM20.4819 17.5199H23.2569V17.2207H20.4819V17.5199ZM18.5639 11.3076L20.3383 17.412L20.6256 17.3285L18.8513 11.2241L18.5639 11.3076ZM18.4883 11.0474L18.5639 11.3076L18.8513 11.2241L18.7756 10.9639L18.4883 11.0474ZM18.6942 11.3089L18.7748 11.0501L18.4891 10.9611L18.4085 11.2199L18.6942 11.3089ZM16.7926 17.4148L18.6942 11.3089L18.4085 11.2199L16.507 17.3258L16.7926 17.4148ZM13.8748 17.5199H16.6498V17.2207H13.8748V17.5199ZM10.0833 6.56203L13.733 17.4179L14.0166 17.3226L10.3669 6.46668L10.0833 6.56203ZM10.033 6.41242L10.0833 6.56203L10.3669 6.46668L10.3166 6.31707L10.033 6.41242ZM10.3326 6.21514H10.1748V6.51436H10.3326V6.21514ZM13.2141 6.21514H10.3326V6.51436H13.2141V6.21514ZM17.2786 6.4715L15.3284 12.9946L15.6151 13.0803L17.5653 6.55721L17.2786 6.4715ZM19.5777 6.36475H17.4219V6.66397H19.5777V6.36475ZM21.6712 12.9946L19.721 6.4715L19.4343 6.55721L21.3846 13.0803L21.6712 12.9946ZM21.81 13.4586L21.6712 12.9946L21.3846 13.0803L21.5233 13.5443L21.81 13.4586ZM21.6712 12.9946L21.5241 13.456L21.8092 13.5469L21.9563 13.0855L21.6712 12.9946ZM23.7523 6.4689L21.6712 12.9946L21.9563 13.0855L24.0374 6.55981L23.7523 6.4689ZM26.619 6.36475H23.8948V6.66397H26.619V6.36475ZM23.2905 17.2668L26.7613 6.56049L26.4767 6.46822L23.0059 17.1745L23.2905 17.2668ZM20.5943 17.3703H23.1482V17.071H20.5943V17.3703ZM18.6319 11.0056L20.4506 17.2624L20.7379 17.1789L18.9193 10.9221L18.6319 11.0056ZM18.4932 10.5284L18.6319 11.0056L18.9193 10.9221L18.7806 10.4449L18.4932 10.5284ZM18.6319 11.0056L18.7797 10.5311L18.494 10.4421L18.3463 10.9167L18.6319 11.0056ZM16.6825 17.2651L18.6319 11.0056L18.3463 10.9167L16.3969 17.1762L16.6825 17.2651ZM13.9823 17.3703H16.5397V17.071H13.9823V17.3703ZM10.2411 6.56203L13.8405 17.2683L14.1242 17.173L10.5248 6.46668L10.2411 6.56203ZM13.1048 6.36475H10.3829V6.66397H13.1048V6.36475ZM15.3284 12.9946L13.2473 6.4689L12.9622 6.55981L15.0433 13.0855L15.3284 12.9946ZM15.4755 13.456L15.3284 12.9946L15.0433 13.0855L15.1904 13.5469L15.4755 13.456ZM15.3284 12.9946L15.1896 13.4586L15.4763 13.5443L15.6151 13.0803L15.3284 12.9946Z" fill="url(#paint1_linear_578_41618)" mask="url(#path-8-inside-1_578_41618)"/>
</g>
</g>
<path fill-rule="evenodd" clip-rule="evenodd" d="M4.35254 12.4357H4.57587V11.5354L4.98008 12.126H4.98747L5.39537 11.5318V12.4357H5.62239V11.1753H5.3806L4.98747 11.7713L4.59433 11.1753H4.35254V12.4357ZM6.0885 12.7291C6.24538 12.7291 6.33213 12.657 6.40965 12.4626L6.79726 11.4849H6.56469L6.31183 12.1907L6.03497 11.4849H5.79688L6.20293 12.4356C6.16602 12.5184 6.12726 12.5454 6.0645 12.5454C6.01836 12.5454 5.97406 12.531 5.93346 12.5094L5.85778 12.6714C5.92608 12.7074 5.99437 12.7291 6.0885 12.7291ZM7.42762 12.4536C7.69894 12.4536 7.88905 12.3132 7.88905 12.0773V12.0737C7.88905 11.8648 7.74693 11.7694 7.47376 11.7046C7.22644 11.647 7.16738 11.6038 7.16738 11.5065V11.5029C7.16738 11.4201 7.2449 11.3535 7.37779 11.3535C7.49591 11.3535 7.61219 11.3985 7.72847 11.4831L7.85029 11.3157C7.71924 11.213 7.56974 11.1572 7.38148 11.1572C7.12492 11.1572 6.94035 11.3067 6.94035 11.5227V11.5263C6.94035 11.7586 7.09539 11.8378 7.3704 11.9027C7.61035 11.9567 7.66203 12.0053 7.66203 12.0953V12.0989C7.66203 12.1944 7.57343 12.2574 7.43316 12.2574C7.27258 12.2574 7.14892 12.198 7.02525 12.0935L6.88867 12.252C7.04371 12.387 7.23013 12.4536 7.42762 12.4536ZM8.54197 12.4571C8.73208 12.4571 8.84466 12.3833 8.94064 12.2789L8.8059 12.1492C8.73577 12.2195 8.65825 12.2681 8.55304 12.2681C8.38139 12.2681 8.26142 12.1312 8.26142 11.962V11.9584C8.26142 11.7927 8.37954 11.6559 8.54197 11.6559C8.65456 11.6559 8.72654 11.7045 8.79483 11.7747L8.93326 11.6289C8.84282 11.5316 8.72838 11.465 8.54381 11.465C8.25219 11.465 8.03809 11.6919 8.03809 11.962V11.9656C8.03809 12.2357 8.25219 12.4571 8.54197 12.4571ZM9.10596 12.4355H9.32929V11.8989C9.32929 11.7513 9.41973 11.6631 9.54893 11.6631C9.68182 11.6631 9.7575 11.7477 9.7575 11.8953V12.4355H9.98083V11.8305C9.98083 11.609 9.85347 11.465 9.63383 11.465C9.48248 11.465 9.39204 11.5424 9.32929 11.6325V11.1211H9.10596V12.4355ZM10.6741 12.4571C10.3769 12.4571 10.1573 12.2357 10.1573 11.9656V11.962C10.1573 11.6901 10.3788 11.465 10.6778 11.465C10.9768 11.465 11.1964 11.6865 11.1964 11.9584V11.962C11.1964 12.2321 10.9749 12.4571 10.6741 12.4571ZM10.677 12.268C10.8579 12.268 10.9724 12.1293 10.9724 11.9655V11.9619C10.9724 11.7944 10.8487 11.6558 10.6734 11.6558C10.4943 11.6558 10.3799 11.7926 10.3799 11.9583V11.9619C10.3799 12.1275 10.5035 12.268 10.677 12.268ZM11.8464 12.4572C11.5492 12.4572 11.3296 12.2357 11.3296 11.9656V11.962C11.3296 11.6902 11.5511 11.4651 11.8501 11.4651C12.1491 11.4651 12.3687 11.6866 12.3687 11.9584V11.962C12.3687 12.2321 12.1472 12.4572 11.8464 12.4572ZM11.8504 12.268C12.0312 12.268 12.1457 12.1294 12.1457 11.9655V11.9619C12.1457 11.7945 12.022 11.6558 11.8467 11.6558C11.6676 11.6558 11.5532 11.7927 11.5532 11.9583V11.9619C11.5532 12.1276 11.6769 12.268 11.8504 12.268ZM12.5697 12.4355H12.7931V11.1211H12.5697V12.4355Z" fill="white"/>
<path fill-rule="evenodd" clip-rule="evenodd" d="M14.5068 12.4357H14.7286V11.5354L15.1299 12.126H15.1373L15.5423 11.5318V12.4357H15.7677V11.1753H15.5276L15.1373 11.7713L14.7469 11.1753H14.5068V12.4357ZM16.2309 12.729C16.3866 12.729 16.4728 12.6569 16.5498 12.4625L16.9346 11.4848H16.7037L16.4526 12.1906L16.1777 11.4848H15.9413L16.3445 12.4355C16.3078 12.5183 16.2694 12.5453 16.207 12.5453C16.1612 12.5453 16.1172 12.5309 16.0769 12.5093L16.0018 12.6713C16.0696 12.7073 16.1374 12.729 16.2309 12.729ZM17.5343 12.4447H17.7322L18.2655 11.1753H18.0218L17.6369 12.144L17.2502 11.1753H17.001L17.5343 12.4447ZM18.3881 11.3391H18.6263V11.132H18.3881V11.3391ZM18.397 12.4356H18.6187V11.4849H18.397V12.4356ZM18.8819 12.4355H19.1037V11.1211H18.8819V12.4355ZM19.3667 12.4355H19.5885V11.1211H19.3667V12.4355ZM20.6503 12.4356H20.4304V12.3185C20.3644 12.396 20.2636 12.4554 20.117 12.4554C19.9337 12.4554 19.7725 12.3527 19.7725 12.1619V12.1583C19.7725 11.9476 19.9392 11.8468 20.1647 11.8468C20.2819 11.8468 20.3571 11.863 20.4322 11.8864V11.8684C20.4322 11.7369 20.3479 11.6649 20.194 11.6649C20.0858 11.6649 20.0052 11.6883 19.9172 11.7243L19.8568 11.5497C19.9631 11.5029 20.0675 11.4705 20.2251 11.4705C20.511 11.4705 20.6503 11.6181 20.6503 11.872V12.4356ZM20.4367 12.0916V12.0376C20.3799 12.016 20.3011 11.9998 20.2149 11.9998C20.0756 11.9998 19.9932 12.0556 19.9932 12.1474V12.151C19.9932 12.241 20.0756 12.2914 20.1801 12.2914C20.3267 12.2914 20.4367 12.2104 20.4367 12.0916ZM21.3058 12.7273C21.1464 12.7273 20.998 12.6877 20.8733 12.6138L20.9558 12.45C21.0584 12.513 21.1684 12.5508 21.3003 12.5508C21.4983 12.5508 21.6064 12.45 21.6064 12.2591V12.1853C21.5258 12.2879 21.425 12.36 21.2655 12.36C21.0383 12.36 20.8257 12.1943 20.8257 11.9152V11.9116C20.8257 11.6307 21.0401 11.4651 21.2655 11.4651C21.4286 11.4651 21.5294 11.5389 21.6046 11.6271V11.4849H21.8263V12.2411C21.8263 12.4014 21.7842 12.5202 21.7035 12.5994C21.6156 12.6859 21.4799 12.7273 21.3058 12.7273ZM21.3242 12.1761C21.4781 12.1761 21.6082 12.0681 21.6082 11.915V11.9114C21.6082 11.7548 21.4781 11.6485 21.3242 11.6485C21.1702 11.6485 21.0493 11.753 21.0493 11.9096V11.9132C21.0493 12.0699 21.1721 12.1761 21.3242 12.1761ZM22.5079 12.4572C22.2275 12.4572 22.0112 12.2573 22.0112 11.9638V11.9602C22.0112 11.6884 22.2073 11.4651 22.4841 11.4651C22.792 11.4651 22.9477 11.7028 22.9477 11.9764C22.9477 11.9963 22.9459 12.0161 22.9441 12.0377H22.233C22.2568 12.1925 22.3686 12.2789 22.5116 12.2789C22.6197 12.2789 22.6967 12.2393 22.7736 12.1655L22.9037 12.2789C22.8121 12.387 22.6857 12.4572 22.5079 12.4572ZM22.231 11.8936H22.7276C22.7129 11.7531 22.6286 11.6433 22.482 11.6433C22.3464 11.6433 22.2511 11.7459 22.231 11.8936Z" fill="white"/>
<path fill-rule="evenodd" clip-rule="evenodd" d="M13.3203 13.9244H13.7621V13.8226H13.424V13.6487H13.7199V13.5469H13.424V13.3785H13.7578V13.2767H13.3203V13.9244ZM14.11 13.9292H14.201L14.4463 13.2769H14.3342L14.1572 13.7747L13.9793 13.2769H13.8646L14.11 13.9292ZM14.5777 13.9246H15.0194V13.8228H14.6814V13.6489H14.9773V13.5471H14.6814V13.3787H15.0152V13.2769H14.5777V13.9246ZM15.1733 13.9246V13.2769H15.4363C15.5105 13.2769 15.5686 13.3009 15.6066 13.3416C15.6378 13.3768 15.6555 13.4249 15.6555 13.4814V13.4832C15.6555 13.5896 15.5973 13.6535 15.5147 13.6794L15.674 13.9246H15.5518L15.4068 13.6988H15.2769V13.9246H15.1733ZM15.2768 13.5979H15.4286C15.5028 13.5979 15.55 13.5554 15.55 13.4897V13.4878C15.55 13.4184 15.5045 13.3805 15.4277 13.3805H15.2768V13.5979ZM15.9653 13.9246H16.0698V13.6664L16.3042 13.2769H16.1853L16.0184 13.5637L15.8531 13.2769H15.7309L15.9653 13.6692V13.9246ZM16.9151 13.9336C17.039 13.9336 17.1259 13.8615 17.1259 13.7402V13.7384C17.1259 13.631 17.0609 13.582 16.9362 13.5487C16.8232 13.5191 16.7962 13.4969 16.7962 13.4469V13.4451C16.7962 13.4025 16.8316 13.3682 16.8923 13.3682C16.9463 13.3682 16.9994 13.3914 17.0525 13.4349L17.1082 13.3488C17.0483 13.2961 16.98 13.2674 16.894 13.2674C16.7769 13.2674 16.6925 13.3442 16.6925 13.4552V13.4571C16.6925 13.5765 16.7634 13.6172 16.889 13.6505C16.9986 13.6782 17.0222 13.7032 17.0222 13.7495V13.7513C17.0222 13.8004 16.9817 13.8328 16.9176 13.8328C16.8443 13.8328 16.7878 13.8022 16.7313 13.7486L16.6689 13.83C16.7398 13.8994 16.8249 13.9336 16.9151 13.9336ZM17.418 13.929H17.5074L17.6524 13.4635L17.7974 13.929H17.8868L18.0925 13.2766H17.9837L17.8429 13.7569L17.6979 13.2747H17.6103L17.4653 13.7569L17.3245 13.2766H17.2124L17.418 13.929ZM18.2343 13.9246H18.338V13.2769H18.2343V13.9246ZM18.5264 13.9246V13.2769H18.7591C18.8965 13.2769 18.9833 13.3629 18.9833 13.4934V13.4953C18.9833 13.6405 18.8771 13.7164 18.7473 13.7164H18.6301V13.9246H18.5264ZM18.63 13.6137H18.7505C18.8289 13.6137 18.8778 13.5655 18.8778 13.498V13.4961C18.8778 13.4203 18.8281 13.3805 18.7505 13.3805H18.63V13.6137ZM19.1196 13.9246H19.5613V13.8228H19.2233V13.6489H19.5191V13.5471H19.2233V13.3787H19.5571V13.2769H19.1196V13.9246ZM20.2718 13.9356C20.3822 13.9356 20.4497 13.8912 20.5112 13.8208L20.4446 13.7468C20.394 13.7986 20.3477 13.831 20.2752 13.831C20.1622 13.831 20.0804 13.7274 20.0804 13.6006V13.5988C20.0804 13.472 20.1622 13.3702 20.2752 13.3702C20.3426 13.3702 20.3932 13.4026 20.4404 13.4507L20.507 13.3665C20.4505 13.3073 20.3848 13.2656 20.276 13.2656C20.0973 13.2656 19.9717 13.4165 19.9717 13.6006V13.6025C19.9717 13.7885 20.0998 13.9356 20.2718 13.9356ZM20.9151 13.9356C20.7339 13.9356 20.6074 13.7848 20.6074 13.6025V13.6007C20.6074 13.4184 20.7356 13.2657 20.9168 13.2657C21.0981 13.2657 21.2245 13.4165 21.2245 13.5988V13.6007C21.2245 13.7829 21.0964 13.9356 20.9151 13.9356ZM20.9165 13.831C21.0336 13.831 21.1154 13.7283 21.1154 13.6024V13.6006C21.1154 13.4747 21.0319 13.3702 20.9148 13.3702C20.7976 13.3702 20.7158 13.4729 20.7158 13.5987V13.6006C20.7158 13.7264 20.7993 13.831 20.9165 13.831ZM21.6223 13.9348C21.7766 13.9348 21.8761 13.8377 21.8761 13.6443V13.2769H21.7724V13.6498C21.7724 13.7692 21.7159 13.8303 21.624 13.8303C21.5313 13.8303 21.4748 13.7655 21.4748 13.6452V13.2769H21.3711V13.6498C21.3711 13.8377 21.4689 13.9348 21.6223 13.9348ZM22.0487 13.9246H22.1507V13.4638L22.4761 13.9246H22.563V13.2769H22.461V13.7247L22.1448 13.2769H22.0487V13.9246ZM22.8899 13.9246H22.9944V13.3824H23.1816V13.2769H22.7027V13.3824H22.8899V13.9246ZM23.5284 13.9336C23.6523 13.9336 23.7391 13.8615 23.7391 13.7402V13.7384C23.7391 13.631 23.6742 13.582 23.5495 13.5487C23.4365 13.5191 23.4095 13.4969 23.4095 13.4469V13.4451C23.4095 13.4025 23.4449 13.3682 23.5056 13.3682C23.5596 13.3682 23.6127 13.3914 23.6658 13.4349L23.7214 13.3488C23.6616 13.2961 23.5933 13.2674 23.5073 13.2674C23.3901 13.2674 23.3058 13.3442 23.3058 13.4552V13.4571C23.3058 13.5765 23.3766 13.6172 23.5023 13.6505C23.6118 13.6782 23.6354 13.7032 23.6354 13.7495V13.7513C23.6354 13.8004 23.595 13.8328 23.5309 13.8328C23.4576 13.8328 23.4011 13.8022 23.3446 13.7486L23.2822 13.83C23.353 13.8994 23.4382 13.9336 23.5284 13.9336Z" fill="white"/>
<path fill-rule="evenodd" clip-rule="evenodd" d="M24.7939 12.5452H25.0176V11.5699L25.4223 12.2097H25.4297L25.8381 11.566V12.5452H26.0654V11.1797H25.8233L25.4297 11.8254L25.036 11.1797H24.7939V12.5452ZM26.5322 12.863C26.6893 12.863 26.7762 12.785 26.8538 12.5743L27.2419 11.5151H27.009L26.7559 12.2798L26.4786 11.5151H26.2402L26.6468 12.5451C26.6099 12.6348 26.571 12.664 26.5082 12.664C26.462 12.664 26.4177 12.6484 26.377 12.625L26.3012 12.8006C26.3696 12.8396 26.438 12.863 26.5322 12.863ZM27.4204 12.5451V11.1797H27.9305C28.2317 11.1797 28.4221 11.3611 28.4221 11.6361V11.64C28.4221 11.9463 28.1892 12.1062 27.9046 12.1062H27.6477V12.5451H27.4204ZM27.6479 11.8897H27.9122C28.0841 11.8897 28.1913 11.7883 28.1913 11.6459V11.642C28.1913 11.4821 28.0823 11.3982 27.9122 11.3982H27.6479V11.8897ZM28.6025 12.545H28.8262V11.1211H28.6025V12.545ZM29.897 12.5453H29.6752V12.4185C29.6087 12.5024 29.507 12.5667 29.3592 12.5667C29.1744 12.5667 29.0117 12.4556 29.0117 12.2488V12.2449C29.0117 12.0167 29.1799 11.9074 29.4072 11.9074C29.5255 11.9074 29.6013 11.925 29.677 11.9503V11.9308C29.677 11.7884 29.592 11.7104 29.4368 11.7104C29.3277 11.7104 29.2464 11.7358 29.1577 11.7748L29.0967 11.5856C29.2039 11.5349 29.3093 11.4998 29.4682 11.4998C29.7565 11.4998 29.897 11.6597 29.897 11.9347V12.5453ZM29.6807 12.1724V12.1139C29.6234 12.0905 29.5439 12.073 29.4571 12.073C29.3166 12.073 29.2335 12.1334 29.2335 12.2329V12.2368C29.2335 12.3343 29.3166 12.389 29.422 12.389C29.5698 12.389 29.6807 12.3012 29.6807 12.1724ZM30.1235 12.545H30.3472V11.9637C30.3472 11.8037 30.4377 11.7081 30.5671 11.7081C30.7001 11.7081 30.7759 11.7998 30.7759 11.9598V12.545H30.9995V11.8896C30.9995 11.6496 30.872 11.4936 30.6521 11.4936C30.5005 11.4936 30.41 11.5775 30.3472 11.675V11.515H30.1235V12.545ZM31.677 12.5684C31.3943 12.5684 31.1762 12.3518 31.1762 12.0339V12.03C31.1762 11.7355 31.374 11.4936 31.653 11.4936C31.9635 11.4936 32.1206 11.7511 32.1206 12.0475C32.1206 12.069 32.1187 12.0905 32.1169 12.1139H31.3998C31.4239 12.2816 31.5366 12.3753 31.6807 12.3753C31.7898 12.3753 31.8674 12.3323 31.945 12.2524L32.0762 12.3753C31.9838 12.4923 31.8563 12.5684 31.677 12.5684ZM31.3984 11.9579H31.8993C31.8845 11.8058 31.7995 11.6868 31.6516 11.6868C31.5149 11.6868 31.4188 11.798 31.3984 11.9579ZM32.6337 12.5625C32.7169 12.5625 32.7797 12.543 32.8352 12.5098V12.3167C32.7908 12.3401 32.7465 12.3518 32.6966 12.3518C32.6208 12.3518 32.5764 12.3148 32.5764 12.2231V11.7179H32.8389V11.515H32.5764V11.2322H32.3528V11.515H32.229V11.7179H32.3528V12.2601C32.3528 12.4864 32.4693 12.5625 32.6337 12.5625Z" fill="white"/>
<defs>
<linearGradient id="paint0_linear_578_41618" x1="-12.0957" y1="1.94415" x2="-5.99341" y2="17.6634" gradientUnits="userSpaceOnUse">
<stop stop-color="white"/>
<stop offset="1" stop-color="white" stop-opacity="0.01"/>
</linearGradient>
<linearGradient id="paint1_linear_578_41618" x1="-0.720011" y1="3.06048" x2="3.38552" y2="28.8434" gradientUnits="userSpaceOnUse">
<stop stop-color="#374E92" stop-opacity="0.01"/>
<stop offset="1" stop-color="#374E92"/>
</linearGradient>
</defs>
</svg>
